<?xml version="1.0" encoding="iso-8859-1"?>
<!-- Uploaded to: SVG Repo, www.svgrepo.com, Generator: SVG Repo Mixer Tools -->
<svg version="1.1" id="Layer_1" xmlns="http://www.w3.org/2000/svg" xmlns:xlink="http://www.w3.org/1999/xlink" 
	 viewBox="0 0 512 512" xml:space="preserve">
<g>
	<circle style="fill:#C0E7F9;" cx="432.88" cy="287.75" r="19.973"/>
	<circle style="fill:#C0E7F9;" cx="470.906" cy="192.87" r="31.88"/>
	<circle style="fill:#C0E7F9;" cx="27.271" cy="40.388" r="19.205"/>
</g>
<rect x="65.364" y="84.947" style="fill:#F9C573;" width="26.119" height="360.286"/>
<path style="fill:#5E86B7;" d="M317.192,313.796H208.521c-39.358,0-71.264,31.906-71.264,71.264v104.606h251.199V385.06
	C388.456,345.702,356.55,313.796,317.192,313.796z"/>
<path style="fill:#527BA3;" d="M252.43,313.796H208.52c-39.358,0-71.264,31.906-71.264,71.264v104.606h43.909V385.06
	C181.166,345.702,213.072,313.796,252.43,313.796z"/>
<g>
	<path style="fill:#E0B394;" d="M141.384,216.395c-14.288-0.634-25.661-12.422-25.661-26.86c0-14.841,12.03-26.883,26.883-26.883
		c1.337,0,2.65,0.092,3.941,0.288"/>
	<path style="fill:#E0B394;" d="M384.309,216.395c14.288-0.634,25.673-12.422,25.673-26.86c0-14.841-12.041-26.883-26.894-26.883
		c-1.337,0-2.662,0.104-3.941,0.288"/>
</g>
<path style="fill:#F7CBA4;" d="M223.962,332.594l-47.3-34.366c-24.995-18.16-38.518-48.191-35.546-78.944l8.204-84.898
	c5.651-58.473,54.788-103.091,113.533-103.091l0,0c58.745,0,107.882,44.618,113.533,103.091l8.204,84.898
	c2.972,30.753-10.549,60.783-35.546,78.944l-47.3,34.366C278.553,349.443,247.152,349.443,223.962,332.594z"/>
<path style="fill:#F95428;" d="M376.384,134.391H149.325c5.646-58.479,54.78-103.095,113.523-103.095
	c29.372,0,56.347,11.154,76.685,29.614C359.86,79.381,373.561,105.146,376.384,134.391z"/>
<path style="fill:#E0B394;" d="M170.551,236.016c-0.795,13.447,3.584,26.675,12.249,36.988l49.437,60.749
	c2.581,3.077,5.508,5.658,8.677,7.72c-5.946-2.074-11.661-5.047-16.95-8.884l-47.301-34.361
	c-24.993-18.16-38.509-48.189-35.537-78.943l8.193-84.901c5.6-57.903,53.835-102.22,111.83-103.061
	c-35.721,0.864-76.17,34.534-78.278,70.393L170.551,236.016z"/>
<path style="fill:#E54728;" d="M261.144,31.328c-0.254,0.012-0.495,0.012-0.749,0.035c-35.537,1.302-75.429,34.753-77.526,70.359
	l-2.512,32.67l-31.043,0.032v-0.035c0.53-5.427,1.429-10.739,2.673-15.902c0.012-0.046,0.023-0.092,0.035-0.127
	c0.219-0.864,0.438-1.728,0.668-2.593c0.23-0.853,0.472-1.717,0.714-2.57c0.495-1.705,1.037-3.399,1.613-5.059
	c1.429-4.171,3.1-8.227,5.001-12.157c1.118-2.351,2.328-4.667,3.63-6.925c1.694-3.019,3.549-5.946,5.531-8.78
	c1.463-2.132,3.019-4.194,4.644-6.211c12.376-15.452,28.669-27.551,47.301-34.857c4.851-1.924,9.875-3.514,15.026-4.736
	c0.853-0.196,1.717-0.403,2.581-0.588c0.864-0.184,1.728-0.357,2.604-0.53c0.876-0.161,1.751-0.323,2.627-0.472
	c3.514-0.599,7.075-1.026,10.693-1.268c0.899-0.058,1.809-0.115,2.719-0.161C258.632,31.386,259.888,31.351,261.144,31.328z"/>
<path style="fill:#CCCCCC;" d="M8.066,489.665v-32.444c0-6.625,5.371-11.995,11.995-11.995h116.723
	c6.625,0,11.995,5.371,11.995,11.995v32.444"/>
<path style="fill:#666666;" d="M285.538,93.393h-45.371c-7.412,0-13.42,6.008-13.42,13.42v27.574h72.21v-27.574
	C298.958,99.401,292.95,93.393,285.538,93.393z"/>
<rect x="298.489" y="403.716" style="fill:#E6E6E6;" width="60.495" height="31.111"/>
<path d="M288.887,266.292c-6.8,6.8-15.841,10.546-25.458,10.546c-9.618,0-18.658-3.745-25.459-10.546
	c-3.375-3.374-8.846-3.375-12.222,0c-3.375,3.375-3.375,8.847,0,12.222c10.065,10.065,23.447,15.608,37.681,15.608
	c14.234,0,27.615-5.544,37.68-15.608c3.375-3.375,3.375-8.847,0-12.222C297.734,262.917,292.263,262.917,288.887,266.292z"/>
<path d="M212.133,189.16c-4.774,0-8.642,3.869-8.642,8.642v13.823c0,4.773,3.868,8.642,8.642,8.642s8.642-3.869,8.642-8.642v-13.823
	C220.775,193.028,216.906,189.16,212.133,189.16z"/>
<path d="M301.077,170.496c7.526-7.526,19.771-7.526,27.297,0c1.687,1.687,3.899,2.532,6.111,2.532s4.424-0.843,6.112-2.532
	c3.375-3.375,3.375-8.847-0.001-12.222c-14.264-14.263-37.474-14.263-51.738,0c-3.376,3.375-3.376,8.847-0.001,12.222
	C292.231,173.87,297.703,173.871,301.077,170.496z"/>
<path d="M198.484,170.496c3.646-3.646,8.494-5.653,13.649-5.653c5.156,0,10.003,2.007,13.648,5.653
	c1.688,1.688,3.899,2.532,6.112,2.532c2.211,0,4.424-0.843,6.111-2.532c3.376-3.375,3.376-8.847,0.001-12.222
	c-6.91-6.91-16.097-10.715-25.87-10.715c-9.771,0-18.96,3.805-25.869,10.715c-3.376,3.375-3.376,8.847-0.001,12.222
	C189.637,173.87,195.109,173.871,198.484,170.496z"/>
<path d="M314.726,189.16c-4.774,0-8.642,3.869-8.642,8.642v13.823c0,4.773,3.868,8.642,8.642,8.642c4.774,0,8.642-3.869,8.642-8.642
	v-13.823C323.368,193.028,319.499,189.16,314.726,189.16z"/>
<path d="M175.988,322.372c-2.477-4.08-7.794-5.379-11.872-2.903c-21.869,13.276-34.925,36.456-34.925,62.006v36.286
	c0,4.773,3.868,8.642,8.642,8.642s8.642-3.869,8.642-8.642v-36.286c0-19.46,9.948-37.115,26.609-47.231
	C177.164,331.768,178.464,326.453,175.988,322.372z"/>
<path d="M389.032,460.589c-4.774,0-8.642,3.869-8.642,8.642v12.367H272.075V372.823c0-4.773-3.868-8.642-8.642-8.642
	c-4.774,0-8.642,3.869-8.642,8.642v108.775h-77.914c-4.774,0-8.642,3.869-8.642,8.642c0,4.773,3.868,8.642,8.642,8.642h212.156
	c4.774,0,8.642-3.869,8.642-8.642v-21.01C397.674,464.459,393.806,460.589,389.032,460.589z"/>
<path d="M362.741,319.471c-4.079-2.476-9.395-1.178-11.873,2.903c-2.476,4.08-1.176,9.396,2.903,11.872
	c16.669,10.121,26.621,27.777,26.621,47.231v58.948c0,4.773,3.868,8.642,8.642,8.642c4.774,0,8.642-3.869,8.642-8.642v-58.948
	C397.674,355.932,384.614,332.751,362.741,319.471z"/>
<path d="M263.429,247.926c12.073,0,21.893-9.821,21.893-21.893v-40.906c0-4.773-3.868-8.642-8.642-8.642
	c-4.774,0-8.642,3.869-8.642,8.642v40.906c0,2.542-2.067,4.609-4.609,4.609c-2.542,0-4.609-2.067-4.609-4.609v-40.906
	c0-4.773-3.868-8.642-8.642-8.642s-8.642,3.869-8.642,8.642v40.906C241.536,238.104,251.358,247.926,263.429,247.926z"/>
<path d="M137.361,437.159h-36.66V85.519c0-4.773-3.868-8.642-8.642-8.642H65.941c-4.774,0-8.642,3.869-8.642,8.642v49.164
	c0,4.773,3.868,8.642,8.642,8.642s8.642-3.869,8.642-8.642V94.162h8.833V437.16h-8.833V163.491c0-4.773-3.868-8.642-8.642-8.642
	c-4.774,0-8.642,3.869-8.642,8.642V437.16H20.637C9.257,437.16,0,446.417,0,457.797v32.444c0,4.773,3.868,8.642,8.642,8.642
	s8.642-3.869,8.642-8.642v-32.444c0-1.849,1.505-3.353,3.353-3.353H65.94h26.118h45.302c1.848,0,3.353,1.504,3.353,3.353v32.444
	c0,4.773,3.868,8.642,8.642,8.642c4.774,0,8.642-3.869,8.642-8.642v-32.444C157.998,446.417,148.741,437.159,137.361,437.159z"/>
<path d="M34.444,464.046c-4.774,0-8.642,3.869-8.642,8.642v17.553c0,4.773,3.868,8.642,8.642,8.642s8.642-3.869,8.642-8.642v-17.553
	C43.086,467.916,39.217,464.046,34.444,464.046z"/>
<path d="M123.555,464.046c-4.774,0-8.642,3.869-8.642,8.642v17.553c0,4.773,3.868,8.642,8.642,8.642
	c4.774,0,8.642-3.869,8.642-8.642v-17.553C132.197,467.916,128.328,464.046,123.555,464.046z"/>
<path d="M64.148,464.046c-4.774,0-8.642,3.869-8.642,8.642v17.553c0,4.773,3.868,8.642,8.642,8.642c4.774,0,8.642-3.869,8.642-8.642
	v-17.553C72.79,467.916,68.922,464.046,64.148,464.046z"/>
<path d="M93.85,464.046c-4.774,0-8.642,3.869-8.642,8.642v17.553c0,4.773,3.868,8.642,8.642,8.642c4.774,0,8.642-3.869,8.642-8.642
	v-17.553C102.493,467.916,98.624,464.046,93.85,464.046z"/>
<path d="M433.453,259.706c-15.778,0-28.616,12.836-28.616,28.615c0,15.778,12.838,28.615,28.616,28.615s28.615-12.835,28.615-28.614
	S449.231,259.706,433.453,259.706z M433.453,299.653c-6.249,0-11.332-5.083-11.332-11.33c0-6.248,5.083-11.33,11.332-11.33
	c6.248,0,11.33,5.083,11.33,11.33C444.784,294.57,439.701,299.653,433.453,299.653z"/>
<path d="M471.479,152.928c-22.345,0-40.523,18.179-40.523,40.523s18.177,40.523,40.523,40.523c22.344,0,40.521-18.179,40.521-40.523
	S493.823,152.928,471.479,152.928z M471.479,216.688c-12.813,0-23.238-10.425-23.238-23.238c0-12.813,10.425-23.238,23.238-23.238
	c12.812,0,23.237,10.425,23.237,23.238S484.291,216.688,471.479,216.688z"/>
<path d="M27.847,68.811c15.354,0,27.846-12.492,27.846-27.847S43.202,13.117,27.847,13.117C12.492,13.117,0,25.608,0,40.964
	S12.492,68.811,27.847,68.811z M27.847,30.401c5.824,0,10.562,4.738,10.562,10.563c0,5.824-4.738,10.563-10.562,10.563
	c-5.825,0-10.563-4.738-10.563-10.563S22.023,30.401,27.847,30.401z"/>
<path d="M290.417,404.293v31.111c0,4.773,3.868,8.642,8.642,8.642h60.492c4.774,0,8.642-3.869,8.642-8.642v-31.111
	c0-4.773-3.868-8.642-8.642-8.642h-60.492C294.287,395.651,290.417,399.52,290.417,404.293z M307.701,412.935h43.207v13.826h-43.207
	V412.935z"/>
<path d="M132.751,224.091c-1.364,31.891,13.432,62.833,39.408,81.705l47.3,34.366c13.151,9.555,28.557,14.332,43.97,14.331
	c15.407-0.001,30.821-4.779,43.969-14.331l47.301-34.366c25.978-18.874,40.774-49.817,39.407-81.709
	c14.608-4.452,25.092-17.992,25.092-33.976c0-18.272-13.872-33.36-31.64-35.307l-1.082-11.194h30.108
	c4.774,0,8.642-3.869,8.642-8.642s-3.868-8.642-8.642-8.642h-32.061c-4.424-27.393-17.933-52.458-38.611-71.233
	c-22.628-20.546-51.922-31.862-82.485-31.862c-30.564,0-59.859,11.315-82.487,31.862c-22.629,20.546-36.708,48.616-39.648,79.039
	l-1.998,20.672c-17.768,1.942-31.642,17.033-31.642,35.308C107.656,206.1,118.143,219.642,132.751,224.091z M401.916,190.112
	c0,6.87-3.776,12.85-9.4,15.962l-3.218-33.303C396.611,175.149,401.916,182.019,401.916,190.112z M376.565,220.692
	c2.665,27.581-9.605,54.834-32.023,71.122L297.24,326.18c-20.224,14.693-47.398,14.694-67.622,0l-47.3-34.366
	c-22.418-16.288-34.689-43.539-32.024-71.122l7.45-77.082h211.372L376.565,220.692z M235.966,126.32v-18.931
	c0-2.634,2.143-4.777,4.777-4.777h45.371c2.634,0,4.777,2.143,4.777,4.777v18.931H235.966z M192.561,67.888
	c19.44-17.652,44.609-27.374,70.868-27.374c26.258,0,51.427,9.722,70.867,27.374c17.069,15.498,28.471,35.981,32.71,58.437h-58.83
	v-18.937c0-12.165-9.897-22.062-22.062-22.062h-45.371c-12.166,0-22.062,9.897-22.062,22.062v18.937h-58.83
	C164.091,103.868,175.494,83.387,192.561,67.888z M137.561,172.766l-3.219,33.312c-5.624-3.11-9.402-9.093-9.402-15.966
	C124.94,182.016,130.247,175.142,137.561,172.766z"/>
<circle cx="474.167" cy="259.127" r="8.642"/>
<circle cx="229.882" cy="386.662" r="8.642"/>
<circle cx="229.882" cy="421.116" r="8.642"/>
<circle cx="229.882" cy="455.592" r="8.642"/>
<circle cx="30.605" cy="115.482" r="8.642"/>
</svg>