<?xml version="1.0" encoding="utf-8"?>
<!-- Generator: Adobe Illustrator 27.5.0, SVG Export Plug-In . SVG Version: 6.00 Build 0)  -->
<svg version="1.1" xmlns="http://www.w3.org/2000/svg" xmlns:xlink="http://www.w3.org/1999/xlink" x="0px" y="0px"
	 viewBox="0 0 500 500" style="enable-background:new 0 0 500 500;" xml:space="preserve">
<g id="BACKGROUND">
	<rect style="fill:#FFFFFF;" width="500" height="500"/>
</g>
<g id="OBJECTS">
	<path style="opacity:0.27;fill:#8FF2D1;" d="M159.079,101.251c-9.556,9.976-16.252,22.272-24.028,33.691
		c-7.775,11.419-17.204,22.431-29.911,27.853c-13.212,5.637-29.126,4.866-40.66,13.427c-8.478,6.292-13.163,17.337-11.796,27.805
		c1.367,10.468,8.732,19.94,18.541,23.844c20.049,7.979,42.872-7.039,63.904-2.217c11.306,2.592,20.469,10.553,29.511,17.819
		c9.042,7.265,19.246,14.372,30.841,14.688c8.8,0.24,17.619-3.786,23.203-10.591c5.584-6.805,7.81-16.24,5.857-24.824
		c-2.746-12.066-12.974-21.629-14.647-33.89c-1.113-8.156,1.766-16.335,5.423-23.71c3.657-7.375,8.159-14.395,10.673-22.234
		c4.078-12.715,2.429-27.15-4.412-38.617c-5.491-9.204-15.865-17.322-30.893-17.823C178.614,86.069,166.969,93.014,159.079,101.251z
		"/>
	<path style="opacity:0.27;fill:#8FF2D1;" d="M189.49,444.932c-2.601-14.586-4.147-30.193,1.878-43.729
		c7.833-17.597,28.431-28.07,47.498-25.337c9.045,1.296,17.726,5.178,26.862,5.122c5.525-0.034,11.033-1.554,15.793-4.357
		c14.564-8.577,19.788-26.845,30.599-39.837c7.16-8.605,17.006-14.944,27.803-17.901c22.993-6.296,45.702,4.519,58.217,24.202
		c6.187,9.731,9.796,21.155,10.199,32.687c0.128,3.665-3.557,34.352-5.015,33.697c8.066,3.625,13.131,13.602,13.423,22.44
		c6.944,0.025,13.652,5.155,15.208,11.923L189.49,444.932z"/>
	<g>
		
			<line style="fill:none;stroke:#B9D0F9;stroke-width:1.6562;stroke-linecap:round;stroke-linejoin:round;stroke-miterlimit:10;" x1="320.578" y1="76.48" x2="320.578" y2="91.384"/>
		
			<line style="fill:none;stroke:#B9D0F9;stroke-width:1.6562;stroke-linecap:round;stroke-linejoin:round;stroke-miterlimit:10;" x1="328.031" y1="83.932" x2="313.126" y2="83.932"/>
	</g>
	<g>
		
			<line style="fill:none;stroke:#B9D0F9;stroke-width:1.6562;stroke-linecap:round;stroke-linejoin:round;stroke-miterlimit:10;" x1="458.812" y1="227.28" x2="458.812" y2="242.185"/>
		
			<line style="fill:none;stroke:#B9D0F9;stroke-width:1.6562;stroke-linecap:round;stroke-linejoin:round;stroke-miterlimit:10;" x1="466.264" y1="234.732" x2="451.36" y2="234.732"/>
	</g>
	<g>
		
			<line style="fill:none;stroke:#B9D0F9;stroke-width:1.6562;stroke-linecap:round;stroke-linejoin:round;stroke-miterlimit:10;" x1="71.874" y1="130.253" x2="71.874" y2="145.158"/>
		
			<line style="fill:none;stroke:#B9D0F9;stroke-width:1.6562;stroke-linecap:round;stroke-linejoin:round;stroke-miterlimit:10;" x1="79.326" y1="137.706" x2="64.422" y2="137.706"/>
	</g>
	<path style="fill:none;stroke:#34304F;stroke-width:5.2605;stroke-linecap:round;stroke-linejoin:round;stroke-miterlimit:10;" d="
		M35.9,444.225c7.89,0,405.037,0,405.037,0"/>
	<circle style="fill:#B9D0F9;" cx="100.368" cy="111.403" r="2.922"/>
	<circle style="fill:#B9D0F9;" cx="39.58" cy="167.515" r="2.922"/>
	<g>
		<g>
			<path style="fill:#2D1A14;" d="M230.434,401.241l1.167,0.01l1.836-221.811c0.124-14.952-12.008-27.286-26.96-27.41l-95.027-0.787
				c-14.952-0.124-27.287,12.009-27.411,26.96l-1.835,221.682l1.556,0.013c1.505,0.013,1.483,2.347-0.019,2.334l-1.556-0.013
				l-0.156,18.853c-0.124,14.952,12.008,27.287,26.961,27.41l95.027,0.786c14.952,0.124,27.287-12.008,27.41-26.961l0.155-18.723
				l-1.167-0.01C228.91,403.563,228.932,401.228,230.434,401.241z"/>
			<path style="fill:#2D1A14;" d="M232.227,231.615L232.227,231.615c-2.14-0.018-3.876-1.783-3.858-3.923l0.284-34.237
				c0.018-2.14,1.783-3.876,3.923-3.858l0,0c2.14,0.018,3.876,1.783,3.858,3.923l-0.283,34.237
				C236.132,229.896,234.367,231.633,232.227,231.615z"/>
			<path style="fill:#2D1A14;" d="M84.861,235.583L84.861,235.583c-2.14-0.018-3.876-1.783-3.858-3.923l0.24-29.049
				c0.018-2.14,1.783-3.876,3.923-3.858l0,0c2.14,0.018,3.876,1.783,3.858,3.923l-0.24,29.049
				C88.766,233.864,87.001,235.601,84.861,235.583z"/>
			<path style="fill:#2D1A14;" d="M86.155,261.108l-1.973-0.016c-1.597-0.013-2.894-1.331-2.88-2.929l0.094-11.404
				c0.013-1.597,1.331-2.894,2.928-2.88l1.972,0.016c1.597,0.013,2.894,1.331,2.88,2.928l-0.094,11.404
				C89.07,259.825,87.752,261.121,86.155,261.108z"/>
			<path style="fill:#2D1A14;" d="M86.502,281.862l-1.973-0.016c-1.597-0.013-2.893-1.331-2.88-2.928l0.095-11.404
				c0.013-1.597,1.331-2.894,2.928-2.88l1.973,0.016c1.597,0.013,2.893,1.331,2.88,2.928l-0.094,11.404
				C89.417,280.579,88.099,281.875,86.502,281.862z"/>
			<path style="fill:#2D1A14;" d="M198.894,444.573l-85.11-0.704c-15.671-0.13-28.387-13.058-28.257-28.729l1.911-230.925
				c0.13-15.671,13.058-28.387,28.729-28.257l85.109,0.704c15.671,0.13,28.387,13.058,28.257,28.729l-1.911,230.925
				C227.492,431.987,214.565,444.703,198.894,444.573z"/>
			<path style="fill:#FFFFFF;" d="M226.932,188.018l-0.298,36.356l-0.242,29.331l-0.205,24.663l-0.423,50.693l-0.199,24.662
				l-0.497,59.925c-0.13,15.175-12.651,27.497-27.827,27.366l-81.485-0.671c-15.182-0.124-27.497-12.651-27.373-27.827l0.454-54.845
				l0.205-24.669l0.242-29.331l0.491-59.508l0.473-57.276c0.131-15.176,12.651-27.498,27.827-27.367l81.485,0.672
				c7.945,0.069,15.101,3.525,20.105,8.983C224.221,174.148,226.994,180.781,226.932,188.018z"/>
			<path style="opacity:0.27;fill:#8FF2D1;" d="M225.564,353.723l0.199-24.662l0.423-50.692l0.205-24.663l0.243-29.331l0.28-34.109
				c-9.316-0.365-18.979,1.373-27.471,4.931c-5.808,2.433-11.152,5.825-15.445,10.357c-5.031,5.311-8.332,12.743-10.13,20.038
				c-4.04,16.382-0.389,33.549,2.001,49.895c1.146,7.835,1.151,15.383-1.054,23.058c-2.023,7.043-5.446,13.647-9.196,19.909
				c-7.299,12.19-15.728,23.508-18.551,37.719c-2.676,13.475-1.206,28.15,5.722,40.166c7.87,13.65,23.115,22.583,37.841,27.139
				c7.962,2.464,15.74,2.955,24.016,2.948c2.345-0.002,4.76-0.001,7.185-0.098c2.025-3.793,3.197-8.105,3.236-12.681
				L225.564,353.723z"/>
			<path style="opacity:0.27;fill:#8FF2D1;" d="M89.041,333.002l-0.047,5.655c5.424-3.675,10.699-7.554,15.669-11.833
				c5.849-5.035,11.326-10.339,14.939-17.236c3.308-6.316,5.1-13.357,6.363-20.34c2.207-12.208,2.404-24.48-1.527-36.156
				c-3.123-9.274-9.386-17.562-17.671-22.695c-5.181-3.21-10.876-5.223-16.826-6.339l-0.166,20.104l-0.491,59.508L89.041,333.002z"
				/>
			<path style="fill:#34304F;" d="M180.434,171.114L180.434,171.114c-1.284-0.011-2.326-1.07-2.315-2.354l0,0
				c0.01-1.284,1.069-2.326,2.354-2.315l0,0c1.284,0.011,2.326,1.07,2.315,2.353l0,0
				C182.777,170.083,181.717,171.125,180.434,171.114z"/>
			<path style="fill:#34304F;" d="M165.926,168.919l-21.787-0.18c-0.713-0.006-1.292-0.594-1.286-1.308l0,0
				c0.006-0.713,0.594-1.292,1.307-1.286l21.787,0.18c0.713,0.006,1.292,0.594,1.286,1.308l0,0
				C167.228,168.346,166.639,168.925,165.926,168.919z"/>
		</g>
	</g>
	<g>
		<path style="fill:none;" d="M115.566,357.391c3.087-3.788,4.966-8.501,5.48-13.355c-2.095-1.232-4.315-2.315-6.593-3.273
			C115.877,346.172,116.28,351.844,115.566,357.391z"/>
		<path style="fill:#A2A2ED;" d="M41.829,342.048c2.464,4.501,6.223,8.02,10.53,10.87c5.319-1.83,11.389-1.506,16.404,1.062
			c-3.614-0.539-7.335,0.406-10.405,2.373c1.348,0.676,2.718,1.311,4.087,1.904c8.169,3.547,16.84,6.257,24.047,11.492
			c7.178,5.211,12.861,12.886,21.275,15.687c7.202,2.402,15.666,0.498,21.146-4.759c5.481-5.253,7.742-13.629,5.651-20.927
			c-1.996-6.957-7.177-12.002-13.517-15.716c-0.514,4.854-2.394,9.567-5.48,13.355c0.714-5.547,0.311-11.218-1.112-16.628
			c-2.892-1.22-5.866-2.24-8.783-3.103c-1.419-0.423-2.854-0.834-4.298-1.249c-7.381-2.133-15.118-4.269-21.599-8.547
			c-9.405-6.202-18.222-23.947-31.336-13.235C41.041,320.674,37.07,333.353,41.829,342.048z"/>
		
			<path style="fill:none;stroke:#7973EF;stroke-width:1.1001;stroke-linecap:round;stroke-linejoin:round;stroke-miterlimit:10;" d="
			M149.975,441.297c-8.669-42.123-35.826-86.298-80.009-100.61"/>
		<path style="fill:none;" d="M63.337,413.213c0.125,0.004,0.253,0.008,0.378,0.012c0.054-0.091,0.112-0.182,0.17-0.274
			c2.074-3.261,5.563-5.593,9.372-6.261c-3.954-0.514-7.439,0.39-10.829,2.485c-1.552,0.958-2.95,2.165-4.124,3.56"/>
		<path style="fill:#A2A2ED;" d="M38.172,410.329c3.941,3.343,8.919,5.001,14.082,5.805c1.58-1.876,3.461-3.5,5.548-4.789
			c4.56-2.819,9.249-4.035,14.568-3.343c-5.124,0.898-9.818,4.035-12.609,8.423c-0.078,0.123-0.156,0.245-0.229,0.368
			c7.245,0.279,14.607-0.134,21.606,1.736c7.128,1.909,13.836,6.179,21.21,5.844c5.057-0.229,9.918-2.841,13.038-6.815
			c0.776-0.988,1.44-2.054,1.976-3.193c2.69-5.715,1.948-12.899-1.853-17.944c-6.346-8.422-18.531-9.371-29.04-8.545
			c-1.228,0.095-2.467,0.201-3.712,0.307c-6.374,0.547-13.022,1.194-19.334-0.195c-9.159-2.015-21.299-13.172-28.298-0.932
			C31.184,393.953,31.882,404.993,38.172,410.329z"/>
		
			<path style="fill:none;stroke:#7973EF;stroke-width:1.1001;stroke-linecap:round;stroke-linejoin:round;stroke-miterlimit:10;" d="
			M132.303,441.764c-14.347-22.407-39.827-41.898-68.518-40.368"/>
		<path style="fill:none;" d="M52.359,352.918c1.913,1.27,3.933,2.406,5.999,3.435c3.07-1.967,6.792-2.913,10.405-2.373
			C63.747,351.412,57.678,351.089,52.359,352.918z"/>
	</g>
	<g>
		<path style="fill:#624BEF;" d="M360.99,241.381l26.848-11.701l-10.276-23.576l-27.4,11.942
			C353.737,225.84,357.342,233.621,360.99,241.381z"/>
		<path style="fill:#624BEF;" d="M329.927,173.24c0.763,1.709,1.528,3.417,2.291,5.125l27.945-12.18l-10.276-23.576l-28.139,12.264
			C324.472,160.997,327.196,167.12,329.927,173.24z"/>
	</g>
	<g>
		<circle style="fill:#624BEF;" cx="400.786" cy="153.726" r="33.008"/>
		<path style="fill:#624BEF;" d="M391.234,175.868c-1.634,4.967-5.69,9.073-10.636,10.769c-4.946,1.696-10.668,0.942-15.006-1.977
			c5.195,1.021,10.435-0.913,13.824-4.979c3.389-4.067,4.349-10.017,2.409-14.942C384.407,168.303,388.652,172.303,391.234,175.868z
			"/>
	</g>
	<g>
		<circle style="fill:#34304F;" cx="401.324" cy="384.911" r="39.428"/>
		<path style="fill:#34304F;" d="M389.914,411.36c-1.952,5.933-6.796,10.837-12.704,12.863c-5.908,2.026-12.743,1.125-17.924-2.362
			c6.205,1.219,12.464-1.09,16.513-5.948c4.049-4.858,5.194-11.965,2.877-17.849C381.76,402.323,386.831,407.102,389.914,411.36z"/>
	</g>
	<g>
		<circle style="fill:#FAC119;" cx="270.179" cy="130.487" r="29.057"/>
		<path style="fill:#FAC119;" d="M261.77,149.979c-1.439,4.372-5.009,7.987-9.363,9.48c-4.354,1.493-9.391,0.829-13.21-1.741
			c4.573,0.898,9.186-0.804,12.17-4.384c2.984-3.58,3.828-8.818,2.12-13.154C255.76,143.319,259.497,146.841,261.77,149.979z"/>
	</g>
	<path style="fill:#FFFFFF;" d="M284.619,127.522c0-4.655-3.774-8.429-8.429-8.429c-2.601,0-4.926,1.18-6.472,3.032
		c-1.546-1.852-3.871-3.032-6.472-3.032c-4.655,0-8.429,3.774-8.429,8.429c0,4.625,4.1,7.681,7.101,10.609
		c0.555,0.542,7.844,7.852,7.848,7.848c3.051-3.051,6.115-6.091,9.152-9.157C281.562,134.154,284.619,131.603,284.619,127.522z"/>
	<path style="fill:#B9D0F9;" d="M334.107,126.229c0-1.886-1.529-3.414-3.415-3.414c-1.054,0-1.995,0.478-2.622,1.228
		c-0.626-0.75-1.568-1.228-2.622-1.228c-1.886,0-3.415,1.529-3.415,3.415c0,1.873,1.661,3.112,2.877,4.298
		c0.225,0.219,3.177,3.181,3.179,3.179c1.236-1.236,2.477-2.467,3.707-3.709C332.869,128.915,334.107,127.882,334.107,126.229z"/>
	<path style="fill:#B9D0F9;" d="M263.999,76.657c0-1.886-1.529-3.415-3.415-3.415c-1.054,0-1.995,0.478-2.622,1.228
		c-0.626-0.75-1.568-1.228-2.622-1.228c-1.886,0-3.415,1.529-3.415,3.415c0,1.874,1.661,3.112,2.877,4.298
		c0.225,0.219,3.177,3.181,3.179,3.179c1.236-1.236,2.477-2.467,3.708-3.709C262.761,79.344,263.999,78.31,263.999,76.657z"/>
	<path style="fill:#B9D0F9;" d="M442.598,205.404c0-5.108-4.14-9.248-9.248-9.248c-2.854,0-5.404,1.294-7.101,3.326
		c-1.696-2.032-4.247-3.326-7.101-3.326c-5.108,0-9.248,4.14-9.248,9.248c0,5.074,4.499,8.427,7.791,11.64
		c0.609,0.594,8.606,8.615,8.611,8.61c3.348-3.348,6.71-6.682,10.041-10.046C439.244,212.679,442.598,209.881,442.598,205.404z"/>
	<path style="fill:#B9D0F9;" d="M263.689,194.395c0-2.716-2.201-4.917-4.917-4.917c-1.518,0-2.874,0.688-3.776,1.769
		c-0.902-1.08-2.258-1.769-3.775-1.769c-2.716,0-4.917,2.201-4.917,4.917c0,2.698,2.392,4.481,4.143,6.189
		c0.324,0.316,4.576,4.581,4.578,4.578c1.78-1.78,3.568-3.553,5.339-5.342C261.905,198.264,263.689,196.776,263.689,194.395z"/>
	<path style="fill:#B9D0F9;" d="M367.62,276.846c0-1.978-1.603-3.581-3.581-3.581c-1.105,0-2.093,0.501-2.75,1.288
		c-0.657-0.787-1.645-1.288-2.75-1.288c-1.978,0-3.582,1.603-3.582,3.581c0,1.965,1.742,3.264,3.017,4.508
		c0.236,0.23,3.333,3.336,3.335,3.334c1.297-1.297,2.598-2.588,3.889-3.891C366.321,279.664,367.62,278.58,367.62,276.846z"/>
	<path style="fill:#B9D0F9;" d="M434.253,330.62c0-1.978-1.603-3.581-3.581-3.581c-1.105,0-2.093,0.501-2.75,1.288
		c-0.657-0.787-1.645-1.288-2.75-1.288c-1.978,0-3.581,1.603-3.581,3.582c0,1.965,1.742,3.264,3.017,4.508
		c0.236,0.23,3.333,3.336,3.335,3.334c1.297-1.297,2.598-2.588,3.889-3.891C432.954,333.438,434.253,332.354,434.253,330.62z"/>
	<path style="fill:#B9D0F9;" d="M265.917,353.525c0-2.982-2.418-5.4-5.4-5.4c-1.667,0-3.155,0.756-4.146,1.942
		c-0.99-1.186-2.48-1.942-4.146-1.942c-2.982,0-5.4,2.418-5.4,5.4c0,2.963,2.627,4.921,4.549,6.797
		c0.356,0.347,5.025,5.03,5.028,5.027c1.955-1.955,3.918-3.902,5.863-5.866C263.959,357.773,265.917,356.139,265.917,353.525z"/>
	<g>
		
			<ellipse transform="matrix(0.0332 -0.9994 0.9994 0.0332 -106.3235 704.0526)" style="fill:#FAC119;" cx="310.77" cy="406.986" rx="27.982" ry="27.982"/>
		<path style="fill:#FAC119;" d="M291.982,415.047c-3.901,2.104-8.791,2.267-12.824,0.428c-4.033-1.839-7.115-5.639-8.083-9.965
			c2.603,3.656,6.955,5.521,11.412,4.994c4.457-0.527,8.516-3.63,10.193-7.793C292.191,406.41,292.472,411.347,291.982,415.047z"/>
	</g>
	<g>
		<g>
			
				<ellipse transform="matrix(0.9272 -0.3745 0.3745 0.9272 -73.3024 179.0629)" style="fill:#FAC119;" cx="424.076" cy="278.138" rx="35.59" ry="35.59"/>
			<path style="fill:#FAC119;" d="M413.777,302.013c-1.762,5.355-6.135,9.783-11.468,11.611c-5.333,1.828-11.502,1.015-16.18-2.132
				c5.601,1.1,11.251-0.984,14.906-5.369c3.655-4.385,4.689-10.8,2.597-16.111C406.416,293.856,410.993,298.169,413.777,302.013z"/>
		</g>
		<g>
			<path style="fill:#FFFFFF;" d="M423.866,299.343L423.866,299.343c-11.288,0-20.523-9.235-20.523-20.523l0,0
				c0-11.287,9.235-20.523,20.523-20.523h0c11.287,0,20.523,9.235,20.523,20.523l0,0
				C444.389,290.108,435.153,299.343,423.866,299.343z"/>
			<path style="fill:#FAC119;" d="M423.627,302.684L423.627,302.684c-0.656,0-1.193-0.537-1.193-1.193v-44.864
				c0-0.656,0.537-1.193,1.193-1.193l0,0c0.656,0,1.193,0.537,1.193,1.193v44.864C424.821,302.147,424.284,302.684,423.627,302.684z
				"/>
			<path style="fill:#FAC119;" d="M400.002,279.059L400.002,279.059c0-0.656,0.537-1.193,1.193-1.193h44.863
				c0.656,0,1.193,0.537,1.193,1.193l0,0c0,0.656-0.537,1.193-1.193,1.193h-44.863C400.539,280.252,400.002,279.715,400.002,279.059
				z"/>
			
				<path style="fill:none;stroke:#FAC119;stroke-width:2.2847;stroke-linecap:round;stroke-linejoin:round;stroke-miterlimit:10;" d="
				M420.76,258.775c0,0-14.796,11.882-3.818,41.045"/>
			
				<path style="fill:none;stroke:#FAC119;stroke-width:2.2847;stroke-linecap:round;stroke-linejoin:round;stroke-miterlimit:10;" d="
				M428.639,259.014c0,0,14.795,11.882,3.818,41.045"/>
		</g>
	</g>
	<g>
		<g>
			
				<ellipse transform="matrix(0.9969 -0.0787 0.0787 0.9969 -23.7867 26.3671)" style="fill:#624BEF;" cx="322.482" cy="314.835" rx="40.74" ry="40.74"/>
			<path style="fill:#624BEF;" d="M305.129,339.017c-3.28,5.558-9.252,9.44-15.662,10.182c-6.411,0.741-13.111-1.676-17.573-6.339
				c5.995,2.6,12.823,1.65,17.982-2.361c5.159-4.01,7.883-10.932,6.842-17.383C298.891,328.095,302.955,334.038,305.129,339.017z"/>
		</g>
		<g>
			
				<polyline style="fill:none;stroke:#FFFFFF;stroke-width:1.9064;stroke-linecap:round;stroke-linejoin:round;stroke-miterlimit:10;" points="
				296.735,324.179 315.24,306.974 326.03,331.016 347.082,306.128 			"/>
			<path style="fill:#34304F;" d="M299.684,326.558c-0.5,2.286-2.758,3.734-5.044,3.234c-2.286-0.5-3.734-2.758-3.234-5.043
				c0.5-2.286,2.758-3.734,5.043-3.234C298.736,322.014,300.184,324.272,299.684,326.558z"/>
			<path style="fill:#34304F;" d="M330.583,332.011c-0.5,2.286-2.758,3.734-5.044,3.234c-2.286-0.5-3.734-2.758-3.234-5.044
				c0.5-2.286,2.758-3.734,5.043-3.234C329.635,327.467,331.083,329.725,330.583,332.011z"/>
			<path style="fill:#34304F;" d="M351.13,307.447c-0.5,2.286-2.758,3.734-5.043,3.234c-2.286-0.5-3.734-2.758-3.234-5.044
				c0.5-2.286,2.758-3.734,5.043-3.234C350.182,302.903,351.629,305.161,351.13,307.447z"/>
			<path style="fill:#34304F;" d="M318.715,309.7c-0.5,2.286-2.758,3.734-5.043,3.234c-2.286-0.5-3.734-2.758-3.234-5.043
				c0.5-2.286,2.758-3.734,5.043-3.234C317.766,305.157,319.214,307.415,318.715,309.7z"/>
		</g>
	</g>
	<g>
		<rect x="383.279" y="370.096" style="fill:#FFFFFF;" width="35.153" height="34.595"/>
		<rect x="397.787" y="369.538" style="fill:#FAC119;" width="7.812" height="35.711"/>
		
			<rect x="397.423" y="369.174" transform="matrix(-1.836970e-16 1 -1 -1.836970e-16 788.7224 -13.9358)" style="fill:#FAC119;" width="7.812" height="36.439"/>
		<path style="fill:#FAC119;" d="M400.287,370.029c0,0-3.634-7.674-11.293-10.441c-2.71-0.979-5.527,1.21-5.339,4.086l0.11,1.681
			c0.183,2.796,2.533,4.953,5.334,4.897L400.287,370.029z"/>
		<path style="fill:#FAC119;" d="M401.222,370.029c0,0,3.634-7.674,11.293-10.441c2.71-0.979,5.527,1.21,5.339,4.086l-0.11,1.681
			c-0.183,2.796-2.533,4.953-5.334,4.897L401.222,370.029z"/>
		<path style="fill:#FAC119;" d="M401.135,376.164L401.135,376.164c-1.266,0-2.302-1.036-2.302-2.302v-8.788
			c0-1.266,1.036-2.302,2.302-2.302l0,0c1.266,0,2.302,1.036,2.302,2.302v8.788C403.437,375.128,402.401,376.164,401.135,376.164z"
			/>
	</g>
	<g>
		<path style="fill:#FFFFFF;" d="M419.492,154.123c0.007-0.031,0.015-0.062,0.022-0.093h-0.044
			c-1.57-7.005-9.323-12.327-18.66-12.327c-9.337,0-17.091,5.323-18.66,12.327h-0.044c0.007,0.031,0.015,0.062,0.022,0.093
			c-0.007,0.031-0.016,0.062-0.022,0.093h0.044c1.57,7.005,9.323,12.327,18.66,12.327c9.337,0,17.091-5.322,18.66-12.327h0.044
			C419.507,154.185,419.499,154.154,419.492,154.123z"/>
		
			<ellipse transform="matrix(0.6331 -0.7741 0.7741 0.6331 28.0533 366.6373)" style="fill:#34304F;" cx="400.786" cy="153.726" rx="10.353" ry="10.353"/>
	</g>
	<path style="fill:#E4E4FD;" d="M154.714,229.696H42.484c0.52-6.152,7.148-10.505,13.03-12.379
		c11.575-3.687,24.438,6.478,35.807,2.197c6.288-2.368,10.302-8.592,16.158-11.886c8.444-4.749,19.432-2.481,27.392,3.041
		C142.831,216.191,149.313,221.653,154.714,229.696z"/>
	<circle style="fill:#B9D0F9;" cx="90.627" cy="86.854" r="2.338"/>
	<circle style="fill:#B9D0F9;" cx="46.4" cy="149.785" r="1.364"/>
	<circle style="fill:#B9D0F9;" cx="57.895" cy="292.208" r="3.507"/>
	<path style="fill:#B9D0F9;" d="M52.439,267.464c0,1.399-1.134,2.533-2.533,2.533c-1.399,0-2.533-1.134-2.533-2.533
		c0-1.399,1.134-2.533,2.533-2.533C51.305,264.932,52.439,266.066,52.439,267.464z"/>
	<path style="fill:#B9D0F9;" d="M251.169,325.525c0,0.753-0.611,1.364-1.364,1.364c-0.753,0-1.364-0.611-1.364-1.364
		s0.611-1.364,1.364-1.364C250.558,324.161,251.169,324.771,251.169,325.525z"/>
	<circle style="fill:#B9D0F9;" cx="266.561" cy="307.99" r="1.753"/>
	<circle style="fill:#B9D0F9;" cx="28.085" cy="366.44" r="2.533"/>
	<circle style="fill:#B9D0F9;" cx="47.763" cy="371.7" r="1.948"/>
	<circle style="fill:#B9D0F9;" cx="329.492" cy="260.256" r="2.338"/>
	<path style="fill:#B9D0F9;" d="M387.552,249.54c0,0.968-0.785,1.754-1.754,1.754c-0.968,0-1.753-0.785-1.753-1.754
		s0.785-1.753,1.753-1.753C386.767,247.786,387.552,248.571,387.552,249.54z"/>
	<path style="fill:#B9D0F9;" d="M344.299,198.494c0,2.475-2.006,4.481-4.481,4.481c-2.475,0-4.481-2.006-4.481-4.481
		s2.006-4.481,4.481-4.481C342.293,194.012,344.299,196.019,344.299,198.494z"/>
	<path style="fill:#B9D0F9;" d="M474.447,168.489c0,1.399-1.134,2.533-2.533,2.533s-2.533-1.134-2.533-2.533
		c0-1.399,1.134-2.533,2.533-2.533S474.447,167.09,474.447,168.489z"/>
	<path style="fill:#B9D0F9;" d="M465.875,109.65c0,2.475-2.006,4.481-4.481,4.481c-2.475,0-4.481-2.006-4.481-4.481
		c0-2.475,2.006-4.481,4.481-4.481C463.868,105.169,465.875,107.175,465.875,109.65z"/>
	<path style="fill:#B9D0F9;" d="M398.073,95.817c0,1.722-1.396,3.117-3.117,3.117c-1.722,0-3.117-1.396-3.117-3.117
		c0-1.722,1.396-3.117,3.117-3.117C396.677,92.699,398.073,94.095,398.073,95.817z"/>
	<g>
		<g>
			<path style="fill:#B9D0F9;" d="M205.657,365.248c-0.641-5.939-1.324-11.872-2.195-17.781c-0.774-5.255-1.723-10.481-3.013-15.639
				c-0.299-1.194-0.627-2.379-1.162-3.492c-0.186-0.387-0.19-0.728-0.016-1.12c2.532-5.697,4.633-11.571,7.087-17.301
				c0.103-0.241,0.223-0.475,0.355-0.757c0.005,0.001,0.007,0.005,0.012,0.006c0.887-3.959,1.843-7.903,2.873-11.829
				c1.171-5.752,2.496-11.475,3.872-17.187c0.051-2.478,0.053-4.955,0.036-7.433c-0.34-0.293-0.679-0.587-1.023-0.876
				c-2.812-2.36-5.889-4.292-9.288-5.685c-4.836-1.982-9.784-3.635-14.854-4.914c-0.851-0.215-1.716-0.412-2.596-0.406
				c-0.734,0.005-1.224-0.303-1.666-0.863c-2.358-2.995-3.792-6.406-4.575-10.107c-0.327-1.548-0.525-3.118-0.581-4.702
				c-0.009-0.263-0.015-0.528-0.052-0.788c-0.17-1.191-0.174-1.194-1.35-1.276c-4.514-0.318-9.027-0.652-13.551-0.798
				c-1.087-0.035-1.11-0.035-1.448,1.034c-0.264,0.836-0.539,1.68-0.677,2.541c-0.422,2.638-1.37,5.077-2.657,7.398
				c-0.617,1.113-1.259,2.214-1.888,3.321c-0.817,1.438-2.014,2.537-3.211,3.641c-0.36,0.332-0.776,0.386-1.207,0.432
				c-7.076,0.753-13.583,3.401-20.095,6.029c-0.77,0.311-1.523,0.692-2.231,1.127c-3.606,2.216-6.907,4.678-9.832,7.439
				c0.014,0.546,0.034,1.091,0.063,1.634c0.436,8.123,4.357,16.376,7.04,23.952c2.946,8.318,6.083,16.59,10.025,24.495
				c0.763,1.531,1.495,3.077,2.259,4.608c0.249,0.499,0.294,0.95,0.086,1.499c-1.744,4.591-2.501,9.406-3.153,14.238
				c-0.524,3.874-1.021,7.75-1.42,11.64c-0.43,4.198-0.683,8.407-0.962,12.615c-1.148,17.247-0.852,34.522-0.956,51.789
				c-0.03,5.009-0.008,10.019-0.01,15.028c0,0.263-0.002,0.527,0.007,0.791c0.034,1.052,0.034,1.076,1.097,1.208
				c2.183,0.271,4.375,0.42,6.575,0.339c4.701-0.173,9.4-0.066,14.1,0.073c1.973,0.058,3.945,0.056,5.904-0.326
				c0.712-0.139,0.881-0.482,0.958-1.139c0.831-7.066,1.726-14.124,2.538-21.192c0.521-4.537,0.912-9.089,1.399-13.631
				c0.529-4.934,1.089-9.865,2.016-14.745c0.087-0.454,0.144-0.914,0.229-1.466c0.42,0.764,0.374,1.528,0.507,2.248
				c1.087,5.835,1.624,11.742,2.301,17.632c0.903,7.857,1.258,15.761,2.119,23.62c0.206,1.876,0.459,3.748,0.697,5.621
				c0.061,0.48,0.082,0.854-0.353,1.282c-0.694,0.682-0.307,1.519,0.716,1.651c1.999,0.258,4.001,0.516,6.023,0.472
				c2.416-0.052,4.833-0.1,7.248-0.193c2.595-0.099,5.184,0.073,7.776,0.099c2.552,0.026,5.094-0.047,7.616-0.485
				c0.258-0.045,0.525-0.076,0.785-0.061c1.098,0.063,1.102,0.065,1.412-0.987c0.425-1.443,0.528-2.941,0.686-4.422
				c0.536-5.025,0.82-10.07,1.111-15.114c0.504-8.738,0.418-17.482,0.172-26.224C207.085,382.938,206.61,374.08,205.657,365.248z"/>
			<path style="fill:#F9A41C;" d="M162.811,441.023c0.692-6.188,1.403-12.374,2.064-18.566c0.521-4.882,0.912-9.779,1.399-14.666
				c0.529-5.308,1.089-10.614,2.016-15.865c0.087-0.489,0.144-0.983,0.229-1.578c0.42,0.822,0.374,1.643,0.508,2.418
				c1.086,6.279,1.624,12.634,2.301,18.971c0.903,8.453,1.258,16.958,2.12,25.414c0.132,1.292,0.283,2.582,0.437,3.871h32.104
				c0.021-0.223,0.042-0.446,0.064-0.668c0.536-5.406,0.82-10.835,1.111-16.262c0.504-9.402,0.418-18.81,0.171-28.216
				c-0.249-9.546-0.724-19.077-1.677-28.58c-0.641-6.391-1.324-12.774-2.195-19.132c-0.454-3.312-0.97-6.613-1.577-9.895h-63.628
				c-0.511,2.636-0.878,5.306-1.213,7.982c-0.523,4.168-1.021,8.339-1.419,12.524c-0.43,4.517-0.683,9.046-0.963,13.573
				c-1.148,18.557-0.852,37.144-0.955,55.722c-0.024,4.317-0.016,8.634-0.012,12.951H162.811z"/>
			<path style="fill:#34304F;" d="M140.112,329.951c0.249,0.499,0.294,0.95,0.086,1.499c-0.848,2.231-1.457,4.517-1.94,6.831h63.621
				c-0.43-2.161-0.895-4.314-1.43-6.454c-0.299-1.194-0.627-2.379-1.162-3.492c-0.186-0.387-0.191-0.728-0.016-1.12
				c2.533-5.697,4.633-11.571,7.087-17.301c0.042-0.098,0.089-0.196,0.136-0.295c0.126-0.684,0.252-1.368,0.378-2.053
				c1.862-12.109,3.161-24.304,4.704-36.464c-2.564-2.026-5.343-3.704-8.38-4.949c-4.836-1.982-9.784-3.635-14.854-4.914
				c-0.621-0.157-1.25-0.302-1.886-0.368c-1.357,2.415-3.179,4.531-5.615,5.997c-3.846,2.313-8.691,2.458-12.855,0.953
				c-4.966-1.794-9.085-5.177-12.04-9.405c-0.581,0.638-1.217,1.227-1.855,1.816c-0.36,0.332-0.776,0.386-1.207,0.432
				c-7.076,0.753-13.583,3.401-20.095,6.029c-0.77,0.311-1.523,0.692-2.231,1.127c-3.607,2.216-6.907,4.679-9.832,7.439
				c0.014,0.546,0.034,1.091,0.063,1.634c0.436,8.123,4.357,16.376,7.04,23.952c2.946,8.318,6.083,16.59,10.025,24.495
				C138.616,326.874,139.348,328.42,140.112,329.951z"/>
			<path style="fill:#B9D0F9;" d="M138.535,275.845c-0.262-2.838-1.457-5.083-4.167-6.331c-1.669-0.768-3.412-0.979-5.225-0.822
				c-2.034,0.176-3.952,0.783-5.842,1.508c-6.973,2.673-13.475,6.281-19.825,10.154c-4.647,2.835-9.21,5.808-13.899,8.577
				c-0.064,0.038-0.124,0.074-0.181,0.104l-0.195,23.885c0.79,0.025,35.506-14.394,41.314-17.801
				c1.993-1.169,3.488-2.68,4.415-4.818c1.261-2.909,2.315-5.883,2.981-8.978C138.3,279.526,138.707,277.707,138.535,275.845z"/>
			<path style="fill:#B9D0F9;" d="M265.525,292.04c2.05-1.283,3.933-2.93,5.508-4.927c2.987-3.787,5.06-8.066,6.773-12.542
				c1.038-2.712,1.874-5.486,2.526-8.313c1.073-4.65,2.124-9.305,3.172-13.961c0.425-1.889,0.705-3.799,0.749-5.739
				c0.008-0.351,0-0.702,0.005-1.054c0.013-0.958-0.139-1.647-1.241-2.131c-1.621-0.712-3.083-1.786-4.613-2.706
				c-0.914-0.55-0.761-0.532-1.368,0.278c-3.455,4.611-6.982,9.167-10.079,14.04c-2.824,4.444-5.872,8.745-8.58,13.264
				c-1.279,2.134-2.512,4.3-3.237,6.703c-0.121,0.4-0.345,0.358-0.659,0.332c-5.428-0.443-10.831-1.123-16.249-1.643
				c-7.404-0.711-14.829-1.115-22.269-0.473c-2.017,0.174-4.008,0.465-5.914,1.196c-1.7,0.651-3.175,1.602-4.341,3.022
				c-1.893,2.306-1.987,4.848-0.982,7.515c0.658,1.75,1.82,3.209,2.953,4.656c1.952,2.493,4.198,4.708,6.604,6.773
				c1.768,1.518,3.773,2.224,6.077,2.405c6.713,0.527,13.393,0.292,20.052-0.663c3.361-0.482,6.734-0.854,10.117-1.13
				c3.735-0.305,7.331-1.165,10.752-2.714C262.698,293.59,264.057,292.842,265.525,292.04z"/>
			<path style="fill:#34304F;" d="M104.359,283.82c-0.475-1.033-0.944-2.082-1.402-3.145c0.173-0.106,0.345-0.215,0.519-0.321
				c6.349-3.874,12.852-7.481,19.824-10.154c1.891-0.725,3.808-1.333,5.842-1.508c1.813-0.157,3.556,0.054,5.225,0.822
				c2.711,1.248,3.905,3.493,4.167,6.331c0.172,1.861-0.235,3.681-0.622,5.478c-0.666,3.095-1.72,6.069-2.981,8.978
				c-0.927,2.138-2.423,3.649-4.416,4.818c-5.069,2.973-10.37,5.414-15.896,7.35C110.73,296.517,107.307,290.231,104.359,283.82z"/>
			<g>
				<g>
					<path style="fill:#B9D0F9;" d="M178.116,242.493c0.003,0.127,0.002,0.253,0.001,0.38c-0.002,0.081-0.004,0.165-0.01,0.246
						c0.001,0.042-0.002,0.085-0.005,0.127c-0.003,0.027-0.003,0.05-0.006,0.077c-0.006,0.081-0.016,0.158-0.022,0.238l-0.01,0.069
						c-0.013,0.115-0.029,0.227-0.046,0.339c-0.02,0.123-0.044,0.243-0.069,0.358c-0.007,0.042-0.017,0.085-0.028,0.127
						c-0.003,0.023-0.01,0.05-0.018,0.073c-0.025,0.1-0.049,0.201-0.078,0.301c-0.067,0.239-0.147,0.471-0.237,0.704
						c-0.022,0.054-0.047,0.112-0.069,0.167c-0.208,0.492-0.466,0.958-0.767,1.395c-0.067,0.094-0.134,0.183-0.201,0.277
						c-0.037,0.047-0.075,0.094-0.116,0.145c-0.064,0.078-0.127,0.156-0.194,0.231c-0.165,0.188-0.337,0.368-0.517,0.541
						c-0.083,0.079-0.169,0.157-0.256,0.232c-0.203,0.173-0.414,0.339-0.637,0.49c-0.166,0.115-0.34,0.223-0.518,0.326
						c-0.311,0.18-0.633,0.337-0.972,0.467c-0.072,0.029-0.145,0.057-0.221,0.082c-0.053,0.02-0.106,0.037-0.16,0.057
						c-0.027,0.008-0.057,0.017-0.088,0.029c-0.027,0.008-0.053,0.016-0.08,0.021c-0.088,0.029-0.175,0.054-0.263,0.075
						c-0.519,0.138-1.062,0.22-1.618,0.236c-0.123,0.003-0.245,0.005-0.368,0.004c-1.363-0.027-2.646-0.431-3.744-1.117
						c-1.086-0.678-1.994-1.636-2.622-2.773c-0.568-1.027-0.905-2.198-0.949-3.456l-0.056-1.791l-0.165-5.266l0-0.004l-0.053-1.649
						l-0.071-2.274c-0.003-0.123-0.006-0.249-0.001-0.372c-0.001-0.061,0.001-0.123,0.003-0.184
						c0.003-0.046,0.005-0.096,0.008-0.142c0.003-0.05,0.005-0.1,0.008-0.146c0.004-0.012,0.003-0.023,0.003-0.035
						c0.003-0.031,0.006-0.061,0.01-0.088c0.003-0.038,0.006-0.073,0.009-0.108c0.003-0.023,0.007-0.042,0.01-0.066
						c0.003-0.05,0.009-0.104,0.02-0.154c0.003-0.046,0.01-0.089,0.02-0.131c0.003-0.027,0.007-0.054,0.01-0.077
						c0.017-0.1,0.038-0.204,0.058-0.305c0.01-0.054,0.024-0.112,0.035-0.166c0.014-0.054,0.025-0.104,0.039-0.155
						c0.014-0.05,0.028-0.1,0.039-0.154c0.004,0,0.004,0,0.004-0.004c0.014-0.05,0.028-0.1,0.043-0.151
						c0.014-0.05,0.032-0.1,0.046-0.151c0.018-0.046,0.032-0.097,0.05-0.147c0.112-0.325,0.247-0.635,0.397-0.938
						c0.063-0.124,0.129-0.249,0.199-0.369c0.026-0.047,0.052-0.093,0.081-0.14c0.074-0.124,0.156-0.245,0.233-0.366
						c0.015-0.016,0.026-0.035,0.037-0.051c0.059-0.09,0.123-0.179,0.194-0.265c0.041-0.051,0.082-0.105,0.123-0.156
						c0.004-0.004,0.007-0.012,0.011-0.016c1.31-1.634,3.285-2.703,5.514-2.776c2.753-0.085,5.216,1.379,6.571,3.613
						c0.199,0.322,0.372,0.659,0.518,1.009c0.353,0.836,0.562,1.757,0.591,2.719L178.116,242.493z"/>
				</g>
				<path style="fill:#B9D0F9;" d="M158.967,239.403c0.056,1.766,1.507,3.153,3.242,3.098c1.735-0.055,3.097-1.532,3.041-3.298
					c-0.056-1.766-1.507-3.154-3.242-3.098C160.273,236.16,158.911,237.637,158.967,239.403z"/>
			</g>
			<g>
				<defs>
					<path id="SVGID_1_" d="M134.662,370.698c0.28-4.308,0.533-8.618,0.962-12.915c0.398-3.983,0.896-7.952,1.419-11.918
						c0.336-2.546,0.702-5.087,1.214-7.595h63.628c0.607,3.123,1.123,6.264,1.577,9.415c0.871,6.05,1.554,12.124,2.195,18.205
						c0.953,9.042,1.428,18.112,1.677,27.195c0.246,8.951,0.332,17.903-0.172,26.849c-0.291,5.164-0.575,10.329-1.111,15.474
						c-0.158,1.516-0.261,3.049-0.686,4.527c-0.31,1.078-0.314,1.075-1.412,1.011c-0.26-0.015-0.528,0.016-0.786,0.062
						c-2.521,0.448-5.063,0.523-7.615,0.497c-2.592-0.027-5.181-0.203-7.776-0.101c-2.415,0.095-4.832,0.144-7.248,0.197
						c-2.022,0.045-4.025-0.219-6.023-0.483c-1.023-0.135-1.411-0.991-0.716-1.69c0.435-0.438,0.414-0.821,0.353-1.313
						c-0.237-1.918-0.491-3.834-0.697-5.755c-0.861-8.047-1.216-16.139-2.12-24.183c-0.677-6.03-1.214-12.077-2.301-18.052
						c-0.134-0.737-0.087-1.519-0.508-2.301c-0.086,0.566-0.143,1.036-0.229,1.501c-0.927,4.996-1.487,10.045-2.016,15.096
						c-0.487,4.65-0.878,9.31-1.399,13.955c-0.812,7.236-1.707,14.463-2.538,21.697c-0.077,0.672-0.247,1.024-0.959,1.166
						c-1.958,0.392-3.931,0.393-5.904,0.334c-4.7-0.142-9.398-0.252-14.099-0.074c-2.2,0.083-4.392-0.069-6.575-0.347
						c-1.063-0.135-1.064-0.16-1.098-1.237c-0.008-0.27-0.007-0.54-0.007-0.81c0.002-5.129-0.02-10.258,0.01-15.386
						C133.81,406.043,133.514,388.356,134.662,370.698z"/>
				</defs>
				<clipPath id="SVGID_00000168114740906103265860000001472226948941714564_">
					<use xlink:href="#SVGID_1_"  style="overflow:visible;"/>
				</clipPath>
				
					<path style="clip-path:url(#SVGID_00000168114740906103265860000001472226948941714564_);fill:none;stroke:#343050;stroke-width:2.2237;stroke-linecap:round;stroke-linejoin:round;stroke-miterlimit:10;" d="
					M168.069,328.637c1.753,19.288-20.415,51.268-36.316,58.911"/>
				
					<path style="clip-path:url(#SVGID_00000168114740906103265860000001472226948941714564_);fill:none;stroke:#343050;stroke-width:2.2257;stroke-linecap:round;stroke-linejoin:round;stroke-miterlimit:10;" d="
					M209.625,385.803c-14.775,14.955-24.624,34.925-27.607,55.976"/>
			</g>
			<path style="fill:#34304F;" d="M203.972,306.878c9.305-1.355,19.838-4.245,28.237-8.472c0-1.689,0.195-3.962,0.195-5.65v-20.656
				c-12.154-3.271-24.952-5.982-37.393-7.89c2.613,7.46,3.045,16.032,4.037,23.875C199.887,294.707,200.973,300.913,203.972,306.878
				z"/>
			<path style="fill:#B9D0F9;" d="M280.626,244.318c2.983,0.137,5.822-1.258,8.316-2.9c4.435-2.922,8.268-6.753,11.193-11.186
				c0.568-0.862,1.124-1.846,0.963-2.865c-3.298-2.93-6.97-5.346-11.36-5.774c-0.89-0.087-1.815-0.112-2.649,0.212
				c-0.751,0.292-1.369,0.844-1.935,1.418C280.097,228.338,278.938,237.324,280.626,244.318z"/>
			<path style="fill:#34304F;" d="M164.368,225.245c-1.921,0.671-2.815,2.966-2.716,4.998c0.099,2.032,0.929,3.948,1.377,5.933
				c0.32,1.417,1.835,2.313,2.563,3.57c1.372-3.115,1.607-6.715,0.654-9.982c4.924,1.736,10.825,1.36,15.685-0.547
				c4.86-1.907,8.993-5.607,11.423-10.228c1.545-2.938,2.32-5.212,2.215-8.529c-0.106-3.318-1.782-6.627-4.597-8.386
				c-2.815-1.759-6.731-1.745-9.343,0.303c-5.278,4.139-3.267,13.509-8.376,17.854C170.278,222.76,166.881,222.255,164.368,225.245z
				"/>
			<path style="fill:#34304F;" d="M164.54,235.388c0.626,0.04,1.108,0.556,1.475,1.064c0.755,1.046,1.323,2.226,1.67,3.468
				c0.498-1.646,1.588-2.775,3.109-3.577c1.521-0.802,3.365-0.968,5.005-0.45c0.878,0.277,2.374,1.044,2.308,1.962
				c0.182,0.247,0.275,3.526,0.268,3.836c-0.054,2.374,0.502,4.937-0.299,7.238c-1.072,3.078-4.804,3.707-7.641,3.022
				c-4.933-1.191-6.953-6.42-6.785-11.046C163.734,238.598,164.864,237.674,164.54,235.388z"/>
			<g>
				<path style="fill:#F9A41C;" d="M377.562,206.104l-43.803,19.091c-11.006,4.797-23.862-0.254-28.658-11.26
					c-4.797-11.006,0.254-23.862,11.26-28.658l43.803-19.091l-10.276-23.576l-43.803,19.092
					c-24.006,10.463-35.023,38.505-24.56,62.51c10.463,24.005,38.504,35.023,62.51,24.561l43.803-19.092L377.562,206.104z"/>
			</g>
			<path style="fill:#B9D0F9;" d="M277.949,242.438c0.141,0.019,0.018,0.273-0.116,0.224c-0.134-0.049-0.168-0.219-0.182-0.36
				c-0.479-4.857-0.707-9.739-0.685-14.62c3.603-3.281,7.437-6.448,11.523-9.104c0.744,3.689-2.134,7.72-5.849,8.324
				c0.763-0.192,0.868,1.076,1.242,1.768c3.103,5.753,2.584,13.271-1.279,18.544C280.409,245.303,279.624,244.819,277.949,242.438z"
				/>
			<path style="fill:#FFFFFF;" d="M176.751,238.317c0.025,0.24,0.024,0.487-0.013,0.737c-0.23,1.55-1.63,2.626-3.127,2.404
				c-1.497-0.223-2.523-1.66-2.293-3.21c0.002-0.013,0.006-0.026,0.008-0.039C173.09,238.683,174.886,238.564,176.751,238.317z"/>
		</g>
		<g>
			<path style="fill:#34304F;" d="M360.99,241.381l26.848-11.701l-10.276-23.576l-27.4,11.942
				C353.737,225.84,357.342,233.621,360.99,241.381z"/>
			<path style="fill:#34304F;" d="M329.927,173.24c0.763,1.709,1.528,3.417,2.291,5.125l27.945-12.18l-10.276-23.576l-28.139,12.264
				C324.472,160.997,327.196,167.12,329.927,173.24z"/>
		</g>
	</g>
	<g>
		<g>
			<path style="fill:#34304F;" d="M307.602,399.983c-5.759-0.988-11.224,2.879-12.212,8.638c-0.988,5.755,2.876,11.223,8.634,12.211
				c5.759,0.988,11.224-2.879,12.211-8.634C317.224,406.439,313.361,400.971,307.602,399.983z M304.773,416.467
				c-3.348-0.574-5.596-3.75-5.022-7.098c0.575-3.348,3.754-5.595,7.101-5.021c3.348,0.574,5.596,3.754,5.021,7.101
				C311.3,414.797,308.121,417.042,304.773,416.467z"/>
		</g>
		<g>
			<g>
				<polygon style="fill:#34304F;" points="308.953,401.263 305.806,400.723 307.485,395.515 309.488,395.858 				"/>
			</g>
			<g>
				<polygon style="fill:#34304F;" points="302.65,418.83 305.797,419.37 304.118,424.578 302.116,424.235 				"/>
			</g>
			<g>
				<polygon style="fill:#34304F;" points="314.585,413.198 315.125,410.051 320.333,411.73 319.99,413.733 				"/>
			</g>
			<g>
				<polygon style="fill:#34304F;" points="297.018,406.895 296.478,410.042 291.27,408.363 291.613,406.36 				"/>
			</g>
			<g>
				<polygon style="fill:#34304F;" points="309.784,418.486 312.391,416.643 314.886,421.513 313.228,422.685 				"/>
			</g>
			<g>
				<polygon style="fill:#34304F;" points="301.819,401.607 299.212,403.45 296.717,398.58 298.375,397.408 				"/>
			</g>
			<g>
				<polygon style="fill:#34304F;" points="297.362,414.029 299.205,416.636 294.335,419.131 293.163,417.473 				"/>
			</g>
			<g>
				<polygon style="fill:#34304F;" points="314.241,406.064 312.398,403.457 317.268,400.962 318.441,402.62 				"/>
			</g>
		</g>
		<g>
			<g>
				<polygon style="fill:#34304F;" points="311.949,403.026 309.219,401.372 312.688,397.139 314.425,398.192 				"/>
			</g>
			<g>
				<polygon style="fill:#34304F;" points="299.654,417.067 302.384,418.721 298.916,422.953 297.178,421.901 				"/>
			</g>
			<g>
				<polygon style="fill:#34304F;" points="312.822,416.194 314.476,413.464 318.709,416.932 317.656,418.67 				"/>
			</g>
			<g>
				<polygon style="fill:#34304F;" points="298.781,403.899 297.127,406.629 292.895,403.16 293.947,401.423 				"/>
			</g>
			<g>
				<polygon style="fill:#34304F;" points="306.419,419.358 309.519,418.597 310.059,424.042 308.086,424.526 				"/>
			</g>
			<g>
				<polygon style="fill:#34304F;" points="305.184,400.735 302.084,401.496 301.544,396.051 303.517,395.566 				"/>
			</g>
			<g>
				<polygon style="fill:#34304F;" points="296.49,410.664 297.251,413.764 291.806,414.304 291.322,412.331 				"/>
			</g>
			<g>
				<polygon style="fill:#34304F;" points="315.113,409.429 314.352,406.329 319.797,405.789 320.282,407.762 				"/>
			</g>
		</g>
		
			<path style="fill:none;stroke:#FAC119;stroke-width:0.4815;stroke-linecap:round;stroke-linejoin:round;stroke-miterlimit:10;" d="
			M314.304,411.865c-0.805,4.69-5.259,7.839-9.948,7.034c-4.69-0.805-7.839-5.259-7.034-9.948c0.805-4.69,5.259-7.839,9.948-7.034
			C311.96,402.721,315.109,407.175,314.304,411.865z"/>
	</g>
	<g>
		<g>
			<path style="fill:#FFFFFF;" d="M321.774,389.124c-2.926,0-5.296,2.372-5.296,5.298c0,2.924,2.37,5.296,5.296,5.296
				c2.926,0,5.296-2.372,5.296-5.296C327.07,391.496,324.7,389.124,321.774,389.124z M321.774,396.672
				c-1.243,0-2.251-1.007-2.251-2.25c0-1.243,1.008-2.251,2.251-2.251c1.243,0,2.251,1.008,2.251,2.251
				C324.025,395.665,323.017,396.672,321.774,396.672z"/>
		</g>
		<g>
			<g>
				<polygon style="fill:#FFFFFF;" points="322.549,389.642 320.95,389.642 321.338,386.929 322.355,386.929 				"/>
			</g>
			<g>
				<polygon style="fill:#FFFFFF;" points="320.926,398.846 322.525,398.846 322.137,401.56 321.12,401.56 				"/>
			</g>
			<g>
				<polygon style="fill:#FFFFFF;" points="326.34,395.056 326.34,393.457 329.053,393.845 329.053,394.862 				"/>
			</g>
			<g>
				<polygon style="fill:#FFFFFF;" points="317.135,393.433 317.135,395.031 314.422,394.644 314.422,393.626 				"/>
			</g>
			<g>
				<polygon style="fill:#FFFFFF;" points="324.418,398.072 325.548,396.942 327.193,399.134 326.473,399.854 				"/>
			</g>
			<g>
				<polygon style="fill:#FFFFFF;" points="319.057,390.416 317.926,391.547 316.282,389.354 317.001,388.635 				"/>
			</g>
			<g>
				<polygon style="fill:#FFFFFF;" points="317.909,396.925 319.04,398.055 316.847,399.699 316.128,398.98 				"/>
			</g>
			<g>
				<polygon style="fill:#FFFFFF;" points="325.566,391.564 324.435,390.433 326.628,388.789 327.347,389.508 				"/>
			</g>
		</g>
		<g>
			<g>
				<polygon style="fill:#FFFFFF;" points="324.177,390.258 322.689,389.673 324.043,387.29 324.99,387.663 				"/>
			</g>
			<g>
				<polygon style="fill:#FFFFFF;" points="319.298,398.23 320.786,398.815 319.432,401.198 318.485,400.826 				"/>
			</g>
			<g>
				<polygon style="fill:#FFFFFF;" points="325.723,396.684 326.309,395.196 328.691,396.55 328.319,397.497 				"/>
			</g>
			<g>
				<polygon style="fill:#FFFFFF;" points="317.751,391.805 317.166,393.292 314.783,391.939 315.156,390.992 				"/>
			</g>
			<g>
				<polygon style="fill:#FFFFFF;" points="322.831,398.788 324.297,398.15 325.024,400.792 324.092,401.198 				"/>
			</g>
			<g>
				<polygon style="fill:#FFFFFF;" points="320.644,389.701 319.178,390.339 318.451,387.697 319.383,387.29 				"/>
			</g>
			<g>
				<polygon style="fill:#FFFFFF;" points="317.194,395.338 317.832,396.803 315.19,397.531 314.784,396.598 				"/>
			</g>
			<g>
				<polygon style="fill:#FFFFFF;" points="326.281,393.151 325.643,391.685 328.285,390.957 328.691,391.89 				"/>
			</g>
		</g>
	</g>
</g>
<g id="PHOTOS">
</g>
<g id="TEXTS">
</g>
</svg>
