<?xml version="1.0" encoding="utf-8"?>
<!-- Generator: Adobe Illustrator 27.5.0, SVG Export Plug-In . SVG Version: 6.00 Build 0)  -->
<svg version="1.1" id="Слой_1" xmlns="http://www.w3.org/2000/svg" xmlns:xlink="http://www.w3.org/1999/xlink" x="0px" y="0px"
	 viewBox="0 0 3000 2000" style="enable-background:new 0 0 3000 2000;" xml:space="preserve">
<rect x="0" style="fill:#FFFFFF;" width="3000" height="2000"/>
<g>
	<g>
		<path style="fill:#EBF3FA;" d="M471.509,1718.794c0,0-361.503-384.185-108.015-742.558
			c94.588-133.725,336.068-208.818,558.048-147.898c131.116,35.984,329.968,30.675,524.265-286.503
			c264.968-432.543,1364.899-235.864,1150.199,521.975c-90.437,319.22,246.643,333.75,79.675,655.666L471.509,1718.794z"/>
		<g>
			<g>
				<path style="fill:#D5E5FB;" d="M2428.615,949.173l-787.423,658.752l-414.295-352.936
					c-77.542,68.284-197.298,173.678-317.775,279.44c-82.332,72.281-148.989,130.683-203.017,177.946l-376.294-0.436
					c104.35-88.843,524.504-458.054,807.559-707.573l86.549-76.29l418.805,356.778l614.711-514.266L2428.615,949.173z"/>
			</g>
			<polygon style="fill:#D5E5FB;" points="2157.753,689.575 2532.772,1065.74 2638.711,636.024 			"/>
		</g>
		<g>
			<g>
				<g>
					<path style="fill:#B7D3F3;" d="M928.361,1482.181c-1.4-34.444-4.419-64.406-8.033-85.302
						c-5.76-33.308-10.946-52.471-11.006-52.674c-0.759-2.93-11.72-14.781-36.092-14.416c-24.371,0.365-22.06,15.909-22.06,15.909
						l0,0c-0.002,0.524,0.067,1.015,0.174,1.381c0.235,0.802,22.607,81.918,21.638,186.65c-0.014,1.471-0.179,4.013-0.074,5.704
						c0,0.009,56.477,1.459,56.491,0C931.37,1530.281,930.409,1504.918,928.361,1482.181z"/>
					<path style="fill:#D2E3FC;" d="M935.462,1533.214c-0.017,1.459-0.787,2.628-1.727,2.628h-0.022
						c-0.939-0.022-1.687-1.191-1.698-2.628h-48.401c-0.017,1.459-0.788,2.628-1.727,2.628h-0.023
						c-0.956-0.022-1.715-1.229-1.704-2.705c0.281-29.98-1.428-57.976-4.016-82.685c-6.434-61.618-18.329-102.801-18.498-103.371
						c-0.107-0.368-0.174-0.856-0.174-1.383c0,0-2.312-15.542,22.058-15.909c24.375-0.367,35.336,11.487,36.096,14.417
						c0.045,0.153,2.981,11.005,6.884,30.513c1.293,6.463,2.688,13.874,4.122,22.158c3.61,20.896,6.631,50.86,8.031,85.301
						C936.711,1504.917,937.431,1524.063,935.462,1533.214z"/>
					<path style="fill:#C5DCF8;" d="M876.584,1535.843h189.758c0,0-4.419-17.883-114.315-15.22
						C874.256,1522.508,876.584,1535.843,876.584,1535.843z"/>
					<g>
						<path style="fill:#B7D3F3;" d="M861.139,1722.627c22.001-111.381,16.344-179.728,16.316-180.589
							c-0.056-1.715,3.105-3.272,4.805-3.327c1.721-0.031,9.315-0.507,10.194,0.961c1.151,1.922,5.581,86.132-27.209,182.955
							H861.139z"/>
					</g>
					<g>
						<path style="fill:#B7D3F3;" d="M1038.313,1722.627c-22.001-111.381-16.344-179.728-16.316-180.589
							c0.056-1.715-3.105-3.272-4.805-3.327c-1.722-0.031-9.315-0.507-10.194,0.961c-1.151,1.922-5.582,86.132,27.209,182.955
							H1038.313z"/>
					</g>
					<g>
						<path style="fill:#B7D3F3;" d="M1073.425,1722.627c-22.002-111.381-16.344-179.728-16.316-180.589
							c0.055-1.715-3.105-3.272-4.805-3.327c-1.722-0.031-9.316-0.507-10.194,0.961c-1.151,1.922-5.582,86.132,27.209,182.955
							H1073.425z"/>
					</g>
					<g>
						<path style="fill:#B7D3F3;" d="M896.487,1722.627c22.002-111.381,16.344-179.728,16.316-180.589
							c-0.055-1.715,3.106-3.272,4.805-3.327c1.722-0.031,9.316-0.507,10.194,0.961c1.151,1.922,5.582,86.132-27.209,182.955
							H896.487z"/>
					</g>
					<path style="fill:#B7D3F3;" d="M1066.454,1541.55H876.696c-2.138,0-3.887-1.749-3.887-3.887v-2.555
						c0-2.139,1.749-3.888,3.887-3.888h189.758c2.138,0,3.887,1.749,3.887,3.888v2.555
						C1070.341,1539.801,1068.592,1541.55,1066.454,1541.55z"/>
					<g>
						<path style="fill:#FFB27D;" d="M1059.788,1370.181l63.077-13.662l3.715,9.055c0,0-69.599,41.414-76.12,39.386
							C1043.939,1402.932,1059.788,1370.181,1059.788,1370.181z"/>
						<path style="fill:#FFB27D;" d="M1002.441,1655.455c-1.58,1.811-1.781,3.834-0.999,5.994c0,0.009,0.006,0.022,0.015,0.03
							c1.446,3.995,6.223,8.458,11.772,12.913c0.708,0.572,1.339,1.093,1.889,1.575c0.144,0.126,0.289,0.253,0.424,0.38
							c0.112,0.099,0.219,0.201,0.327,0.295c5.174,4.77,3.227,5.862,12.523,15.541c10.6,11.028,17.897,11.228,19.974,10.223
							c1.756-0.856-1.812-6.706-5.766-13.28c-0.192-0.316-0.379-0.638-0.576-0.958c-0.526-0.874-1.05-1.762-1.572-2.64
							c-4.634-7.913-3.444-11.625-2.346-23.4c0.893-9.568,14.886-53.457,14.886-53.457l-20.313-3.499c0,0-6.117,34.948-12.857,40.33
							c-3.604,2.869-7.638,2.905-11.102,5.031c-0.245,0.148-0.485,0.3-0.721,0.456
							C1006.031,1652.294,1004.026,1653.641,1002.441,1655.455z"/>
						<path style="fill:#1C468A;" d="M1002.441,1655.455c-1.58,1.811-1.781,3.834-0.999,5.994c0,0.009,0.006,0.022,0.015,0.03
							c1.771,3.991,6.428,8.431,11.791,12.872c0.701,0.582,1.319,1.116,1.87,1.616c0.144,0.126,0.289,0.253,0.424,0.38
							c0.112,0.099,0.219,0.201,0.327,0.295c5.174,4.77,3.227,5.862,12.523,15.541c10.6,11.028,17.897,11.228,19.974,10.223
							c1.756-0.856-1.812-6.706-5.766-13.28c-2.063-0.756-11.648-4.648-18.894-13.922c-6.383-8.145-10.639-18.609-14.985-24.671
							c-0.245,0.148-0.485,0.3-0.721,0.456C1006.031,1652.294,1004.026,1653.641,1002.441,1655.455z"/>
						<path style="fill:#FFB27D;" d="M1166.23,1642.77c1.254,6.27,10.191,5.224,20.177,2.783c9.985-2.439,7.612,0.461,21.823-1.112
							c14.211-1.573,18.516-6.872,18.949-8.985c0.388-1.875-6.634-2.536-14.166-3.403c-0.947-0.106-1.899-0.224-2.85-0.341
							c-8.504-1.066-14.731-6.555-22.455-11.061c-7.316-4.269-18.235-21.66-18.235-21.66l-19.489,1.544
							c0,0,10.227,15.533,14.183,22.287c2.327,3.972,2.203,9.225,1.913,13.281C1165.93,1638.307,1165.786,1640.561,1166.23,1642.77z
							"/>
						<path style="fill:#1C468A;" d="M1186.407,1645.553c9.985-2.439,7.612,0.461,21.823-1.112
							c14.211-1.573,18.516-6.872,18.949-8.985c0.388-1.875-6.634-2.536-14.166-3.403l-0.07,0.145c0,0-8.523,6.043-20.352,6.326
							c-9.642,0.234-19.854-2.528-26.512-2.42c-0.15,2.204-0.294,4.458,0.15,6.667
							C1167.485,1649.039,1176.422,1647.993,1186.407,1645.553z"/>
						<path style="fill:#FFB27D;" d="M1122.865,1356.519c0,0,4.643-11.376,9.751-11.841s21.36-3.019,22.521-0.696
							c1.161,2.321,0,10.68-3.482,13.698c-3.482,3.018-25.074,7.894-25.074,7.894L1122.865,1356.519z"/>
						<path style="fill:#163560;" d="M1091.542,1518.149l-42.003,113.038c0,0-6.453,0.625-12.639-1.158
							c-5.693-1.64-12.216-5.948-12.216-5.948s10.419-108.537,29.522-131.112
							C1073.308,1470.393,1091.542,1518.149,1091.542,1518.149z"/>
						<path style="fill:#1C468A;" d="M925.409,1472.419c0,0,120.692-40.81,147.609-32.127
							c26.917,8.684,107.735,169.477,107.735,169.477s-1.822,2.426-6.802,4.294c-4.631,1.736-15.841,1.625-15.841,1.625
							s-72.937-62.518-81.619-80.751c-8.683-18.234-12.156-35.601-20.839-33.864c-8.683,1.737-112.01,42.547-135.454,18.234
							c-23.444-24.312-17.313-55.9-17.313-55.9L925.409,1472.419z"/>
						<path style="fill:#B5453C;" d="M994.217,1184.65c-5.217-2.965-11.469-3.289-15.842-3.03c1.126-1.162,3.341-1.586,3.341-1.586
							c-2.712-0.403-8.764,2.286-8.764,2.286c-37.72-14.534-43.649,41.006-42.856,53.909c0.787,12.901,0.882,27.754-17.947,39.326
							c-37.049,22.77-5.789,62.521-5.789,62.521c0.292,0.172,17.238,28.914,17.238,28.914
							c-0.952-10.428,47.159-65.453,72.259-81.933c6.11-8.995,8.282-24.887,8.444-26.138c-1.055,12.601-3.21,19.668-5.137,23.647
							C1020.419,1263.006,1008.045,1192.508,994.217,1184.65z"/>
						<path style="fill:#FFB27D;" d="M994.371,1285.878c0.125,0.057-12.119,6.414-21.33,3.896
							c-8.664-2.362-14.324-13.596-14.205-13.621c3.669-0.729,4.727-5.771,4.649-27.437l1.659,0.326l27.889,5.522
							c0,0-0.634,8.777-0.653,17.045C992.36,1278.553,992.781,1285.137,994.371,1285.878z"/>
						<path style="fill:#ED975D;" d="M993.033,1254.564c0,0-0.634,8.777-0.653,17.045c-15.606-0.439-23.855-14.676-27.235-22.567
							L993.033,1254.564z"/>
						<path style="fill:#B5453C;" d="M962.264,1246.006c0,0-8.179-12.922-10.142-23.972c-1.401-7.889,2.617-37.13,32.001-32.919
							c0,0,8.535,0.841,16.557,6.26c6.38,4.309,15.587,13.611,5.293,39.128l-2.674,8.62L962.264,1246.006z"/>
						<path style="fill:#FFB27D;" d="M998.245,1262.395c0,0-36.924,0.608-36.95-22.392c-0.025-23-4.808-38.412,18.766-39.773
							c23.574-1.361,28.164,7.41,30.04,15.085C1011.977,1222.99,1007.849,1261.643,998.245,1262.395z"/>
						<path style="fill:#B5453C;" d="M996.878,1199.666c0,0-10.11,26.984-25.625,30.974c-15.515,3.99-22.245-0.167-22.245-0.167
							s11.901-9.454,14.371-25.957C963.378,1204.516,989.252,1186.823,996.878,1199.666z"/>
						<path style="fill:#B5453C;" d="M994.373,1201.857c0,0,7.55,6.023,9.391,11.881c1.841,5.857,2.668,17.914,6.183,17.504
							c0,0,7.617-18.341-0.943-28.716C999.926,1191.524,994.373,1201.857,994.373,1201.857z"/>
						<path style="fill:#1C468A;" d="M912.149,1385.215c-3.641-15.271,8.747-44.904,21.679-69.438
							c11.734-22.235,23.914-40.273,25.008-39.625c30.947,18.368,33.744,3.097,33.744,3.097l0.001,0.003
							c0.012,0.002,28.113,3.73,36.071,17.432c9.873,17.001,20.541,64.505,31.135,73.497c-1.627,4.979-0.929,7.632,0.795,13.801
							c0.371,1.323,0.777,2.581,1.227,3.771c1.597,4.342,3.595,7.863,5.319,10.923c-5.386,3.272-15.786,9.496-23.449,5.021
							c-11.682-6.837-20.795-27.65-25.926-35.938c-0.019-0.031-0.038-0.062-0.057-0.093c-11.149,63.112,4.011,77.485-3.664,84.14
							c-8.104,7.027-19.683-3.346-45.154,7.693c-16.707,7.248-39.891,17.726-55.498,19.549c-8.185,0.961-14.293-0.463-16.284-5.991
							C891.309,1456.991,919.096,1414.327,912.149,1385.215z"/>
						<path style="fill:#FFFFFF;" d="M990.036,1248.451c0,0,0.688,2.922,7.957,2.472c0,0,6.103-0.377,5.917-3.589
							C1003.91,1247.334,997.992,1245.05,990.036,1248.451z"/>
						<path style="fill:#163560;" d="M897.098,1473.056c1.991,5.528,8.099,6.952,16.284,5.991
							c10.802-4.706,57.467-22.785,56.945-35.034c-0.775-18.137-8.973-18.716-3.184-41.101
							c4.648-17.975-38.469-51.396-45.347-58.661c-12.932,24.533-13.289,25.692-9.648,40.964
							C919.096,1414.327,891.309,1456.991,897.098,1473.056z"/>
						<path style="fill:#1C468A;" d="M891.823,1407.643c8.275-11.621,16.897-17.766,22.568-20.855
							c-1.305-3.364,34.809-47.639,34.809-54.499c0-6.946,9.636-56.139,9.636-56.139s-30.091,1.858-40.51,16.388
							C905.295,1310.709,878.234,1380.643,891.823,1407.643z"/>
						<path style="fill:#FFB27D;" d="M914.391,1386.787l60.134,15.69l-5.644,10.131c0,0-73.18-0.511-77.057-4.966
							C887.945,1403.188,914.391,1386.787,914.391,1386.787z"/>
						<path style="fill:#163560;" d="M1017.754,1367.758c5.13,8.288,14.244,29.102,25.926,35.938
							c7.663,4.475,18.063-1.749,23.449-5.021c-1.724-3.06-3.722-6.581-5.319-10.923c-4.298,0.983-9.544,2.24-12.926,3.261
							C1042.302,1393.004,1017.754,1367.758,1017.754,1367.758z"/>
						<path style="fill:#FFB27D;" d="M974.524,1402.478c0,0,18.883-5.344,23.381-4.095c4.498,1.25,19.909,11.454,17.743,14.226
							c-2.167,2.771-15.744-1.659-21.991-0.82c-6.247,0.839-11.079,3.921-15.577,3.255c-4.498-0.667-9.201-2.435-9.201-2.435
							L974.524,1402.478z"/>
						<path style="fill:#FFB27D;" d="M974.524,1402.478c0,0,9.239-4.747,11.867-7.448c0.332-0.341,0.893-0.27,1.148,0.132
							c0.704,1.111,1.363,3.256-1.878,5.388C980.997,1403.618,974.524,1402.478,974.524,1402.478z"/>
					</g>
				</g>
				<g>
					<path style="fill:#ED7D2B;" d="M1061.792,1429.046h-88.101l0,0c0-3.879,3.144-7.023,7.023-7.023h81.078V1429.046z"/>
					<polygon style="fill:#ED7D2B;" points="1061.54,1333.095 1197.75,1333.095 1165.079,1429.046 1027.984,1429.046 					"/>
					<polygon style="fill:#F99746;" points="1199.759,1333.096 1167.083,1429.043 1029.992,1429.043 1063.545,1333.096 					"/>
					<path style="fill:#F9DDBF;" d="M1126.32,1380.183c-0.847,3.666-4.504,6.638-8.17,6.638s-5.952-2.972-5.105-6.638
						c0.846-3.666,4.504-6.638,8.17-6.638S1127.166,1376.517,1126.32,1380.183z"/>
					<path style="fill:#ED893E;" d="M1199.759,1333.096l-32.676,95.947h-90.789c60.141-20.527,76.15-83.116,78.835-95.947H1199.759z
						"/>
				</g>
			</g>
			<g>
				<g>
					<g>
						<path style="fill:#95C0F4;" d="M804.318,1722.627c1.723,0,3.196-1.21,3.49-2.862l17.108-96.969l24.607-139.461l6.881-38.997
							l-17.527-0.501l-3.041,22.639l-21.352,159.091l-12.659,94.3C801.632,1721.329,802.8,1722.627,804.318,1722.627z"/>
					</g>
					<path style="fill:#78ACEA;" d="M835.837,1466.476c11.356,5.011,13.687,16.859,13.687,16.859l6.881-38.997l-17.527-0.501
						L835.837,1466.476z"/>
				</g>
				<g>
					<g>
						<path style="fill:#95C0F4;" d="M1240.264,1722.627c-1.723,0-3.196-1.21-3.491-2.862l-17.107-96.969l-24.608-139.461
							l-6.881-38.997l17.527-0.501l3.041,22.639l21.352,159.091l12.658,94.3C1242.95,1721.329,1241.781,1722.627,1240.264,1722.627z
							"/>
					</g>
					<path style="fill:#78ACEA;" d="M1208.745,1466.476c-11.355,5.011-13.687,16.859-13.687,16.859l-6.881-38.997l17.527-0.501
						L1208.745,1466.476z"/>
				</g>
				<path style="fill:#78ACEA;" d="M792.624,1459.647h448.834c5.88,0,10.691-4.811,10.691-10.69v-9.24
					c0-5.88-4.811-10.691-10.691-10.691H792.624c-5.88,0-10.69,4.812-10.69,10.691v9.24
					C781.934,1454.837,786.745,1459.647,792.624,1459.647z"/>
			</g>
		</g>
		<path style="fill:#2E3552;" d="M2807.709,1721.703H168.859c-1.648,0-2.997-1.348-2.997-2.996v-1.022
			c0-1.648,1.349-2.997,2.997-2.997h2638.85c1.648,0,2.997,1.349,2.997,2.997v1.022
			C2810.706,1720.355,2809.357,1721.703,2807.709,1721.703z"/>
		<g>
			<path style="fill:#FFB27D;" d="M1907.469,1412.708c0,0-11.644,14.444-8.003,16.412c3.64,1.968,13.259,5.652,15.526,3.33
				s2.979-19.341,2.979-19.341L1907.469,1412.708z"/>
			<path style="fill:#FFB27D;" d="M1907.944,1412.948c0,0-4.761,1.651-6.634,4.127s-6.014,6.252-4.999,7.299
				s6.961-3.577,6.961-3.577L1907.944,1412.948z"/>
			<path style="fill:#AEC3FF;" d="M1951.483,1219.878c0,0-13.124,122.168-14.293,125.649c-0.255,0.756-1.283,4.623-2.733,10.188
				c-2.065,7.946-4.984,19.365-7.753,30.221c-4.176,16.403-8.008,31.54-8.008,31.54l-11.393-3.753c0,0-0.589-59.37,2.338-73.039
				c2.937-13.678,12.307-97.67,17.045-108.974C1931.415,1220.405,1951.483,1219.878,1951.483,1219.878z"/>
			<g>
				<path style="fill:#A02E2E;" d="M1924.194,1512.838l-71.574-18.771c-9.314-2.443-14.938-12.063-12.495-21.378l8.135-31.018
					c2.443-9.315,12.063-14.938,21.379-12.495l71.574,18.771c9.314,2.443,14.938,12.063,12.494,21.379l-8.134,31.017
					C1943.13,1509.658,1933.51,1515.281,1924.194,1512.838z"/>
				<path style="fill:#BC3F3F;" d="M1857.7,1444.126l-8.228,31.375c-1.59,6.075,0.229,12.278,4.265,16.55
					c1.337,1.418,2.917,2.625,4.703,3.54c0.004,0.002,0.004,0.002,0.008,0.004l0.005,0.001c1.11,0.575,2.301,1.038,3.563,1.367
					l71.446,18.733c9.35,2.452,19.004-3.189,21.456-12.539l8.232-31.378c2.448-9.351-3.194-19.006-12.544-21.458l-24.601-6.45
					l1.756-6.693c0.814-3.093-1.048-6.268-4.137-7.079l-2.697-0.708l-14.965-3.925l-3.719-0.974
					c-1.491-0.393-3.057-0.176-4.396,0.604c-1.341,0.784-2.294,2.04-2.684,3.532l-1.757,6.693l-14.25-3.74
					c-0.565-0.148-1.125-0.263-1.687-0.354c-0.006,0.003-0.01,0.001-0.014-0.001l-0.004-0.001
					c-5.729-0.912-11.402,1.116-15.296,5.067l-0.002,0.004C1860.075,1438.408,1858.504,1441.066,1857.7,1444.126z
					 M1922.491,1442.946l-25.567-6.702l1.757-6.693c0.302-1.151,1.487-1.846,2.643-1.543l6.42,1.684l11.779,3.086l3.178,0.835
					c0.218,0.06,0.415,0.147,0.597,0.261c0.782,0.488,1.193,1.447,0.949,2.384L1922.491,1442.946z"/>
			</g>
			<path style="fill:#FFB27D;" d="M1914.273,1432.771c0,0,3.179-5.354,1.987-7.223c-1.19-1.868-5.48,5.55-5.48,5.55
				s2.928-6.368,1.836-7.418s-5.581,6.273-5.581,6.273s2.794-6.188,1.814-6.398c-0.98-0.21-4.31,5.203-4.31,5.203
				s1.729-4.635,0.15-4.412c-1.579,0.224-5.002,4.449-5.002,4.449L1914.273,1432.771z"/>
			<path style="fill:#9DB0F4;" d="M1934.457,1355.715c-2.065,7.946-4.984,19.365-7.753,30.221
				c-1.785-5.019-4.053-13.01-5.485-23.962c-2.638-20.218,5.468-63.29,5.468-63.29L1934.457,1355.715z"/>
			<path style="fill:#FFB27D;" d="M2084.588,1407.684c0,0,12.689,10.307,14.258,13.527c1.568,3.22,5.512,15.142,5.303,18.982
				c-0.209,3.842-9.723-8.794-12.517-9.813s2.921,5.186,2.277,6.519c-0.643,1.333-6.595-3.016-8.865-4.438
				c-2.271-1.424-3.865-11.063-7.25-16.309C2074.41,1410.907,2084.588,1407.684,2084.588,1407.684z"/>
			<path style="fill:#233862;" d="M1918.086,1716.322h63.264c4.533-3.074-1.223-33.127-1.223-33.127s-17.267-6.552-20.248,6.771
				c-2.991,13.313-21.993,17.547-32.049,19.171C1920.948,1710.257,1918.773,1714.037,1918.086,1716.322z"/>
			<path style="fill:#233862;" d="M2011.912,1716.322h63.265c4.533-3.074-1.223-33.127-1.223-33.127s-17.267-6.552-20.249,6.771
				c-2.991,13.313-21.992,17.547-32.049,19.171C2014.775,1710.257,2012.601,1714.037,2011.912,1716.322z"/>
			<path style="fill:#2B478B;" d="M1935.106,1409.731c0,0,2.844,35.478,6.187,78.124c4.542,57.932,16.794,201.563,16.794,201.563
				s8.032,6.854,25.824,3.104c0,0,15.144-49.551,19.673-106.105c0.07-0.927,0.141-1.861,0.21-2.795
				c4.213-57.572,10.764-178.807,10.764-178.807L1935.106,1409.731z"/>
			<path style="fill:#233862;" d="M1934.137,1397.473c0,0,3.813,47.736,7.156,90.383l62.291,98.563
				c0.07-0.927,0.141-1.861,0.21-2.795c4.213-57.572,10.764-178.807,10.764-178.807L1934.137,1397.473z"/>
			<path style="fill:#2B478B;" d="M1952.292,1397.473c0,0,45.178,112.456,59.62,155.084
				c10.288,30.365,39.301,136.885,39.301,136.885s12.617,3.84,23.221-3.582c0,0,10.793-108.828-11.01-139.515
				c-11.568-16.28-2.875-169.237-49.776-170.547C1966.744,1374.488,1952.292,1397.473,1952.292,1397.473z"/>
			<path style="fill:#AEC3FF;" d="M2038.385,1407.684c-18.838,10.627-99.541,10.39-103.277,2.048
				c-8.351-18.627-10.443-113.281-6.505-142.315c0,0,2.039-44.62,6.505-42.65c29.808-13.695,78.058-1.258,78.058-1.258
				c13.01,3.833,11.894,33.562,15.524,75.308c0.466,5.38,0.984,10.987,1.564,16.78c2.566,25.782,6.303,55.396,11.981,86.638
				C2042.613,1404.29,2041.181,1406.109,2038.385,1407.684z"/>
			<path style="fill:#FFB27D;" d="M1990.873,1218.489c-0.501,7.981-10.908,7.076-23.426,4.219
				c-12.509-2.848-7.981-10.231-7.981-10.231s0.185-5.67,0.976-12.465c0.29-2.47,0.65-5.099,1.125-7.647
				c0.22-1.248,0.466-2.479,0.747-3.666c1.635-7.023,25-0.246,24.833,1.645C1986.689,1195.44,1990.381,1212.222,1990.873,1218.489z"
				/>
			<polygon style="fill:#233862;" points="1964.047,1232.417 1963.059,1221.392 1976.914,1224.006 1971.583,1233.85 			"/>
			<path style="fill:#9DB0F4;" d="M1959.762,1207.286l-8.278,12.59c0,0,0,7.744,7.184,13.364l11.319-10.541
				C1969.986,1222.699,1962.668,1219.907,1959.762,1207.286z"/>
			<path style="fill:#9DB0F4;" d="M1969.986,1222.699c0,0,2.349,8.418,6.879,12.281c0,0,17.675-4.752,21.887-13.807l-9.205-11.884
				C1989.547,1209.29,1989.102,1218.279,1969.986,1222.699z"/>
			<path style="fill:#E2915A;" d="M1987.277,1194.307c0,0-11.251,7.48-26.836,5.705c0.29-2.47,0.65-5.099,1.125-7.647
				c3.076-0.747,5.652-1.213,5.652-1.213L1987.277,1194.307z"/>
			<path style="fill:#FFB27D;" d="M1994.418,1185.807c-5.498,15.135-25.564,11.271-34.109,8.841
				c-2.406-0.681-3.896-1.249-3.896-1.249c-2.641-1.198-3.458-5.807-3.227-11.627c0.455-11.52,5.005-27.783,7.615-31.703
				c3.929-5.896,10.479-11.893,29.944-3.543C2010.216,1154.879,2001.47,1166.416,1994.418,1185.807z"/>
			<path style="fill:#233862;" d="M2009.451,1178.036c-6.145,5.011-19.343,14.284-19.343,14.284s1.471-1.736,3.265-6.738
				c0.204-0.568,0.269-1.399,0.241-2.281c-0.076-2.453,0.517-4.901,1.804-6.99c0.805-1.306,1.096-2.66,0.079-3.619
				c-1.669-1.579-4.517-0.129-6.383,1.149c-1.23,0.843-2.849,0.892-4.115,0.104c-0.009-0.005-0.017-0.01-0.024-0.015
				c-5.248-3.287,0.545-9.08-3.718-13.889c-4.272-4.808-22.732-5.468-21.994-8.482c-6.303-3.561-2.329-16.702-2.215-17.396
				c0,0,9.046,0.8,20.341-2.021c9.168-2.303,19.277,3.587,22.477,6.013c0-0.58-0.097-1.389-0.51-2.241c0,0,1.389,1.371,1.363,2.971
				c0.141,0.141,0.201,0.237,0.158,0.264c0,0,1.828-0.035,2.892,0.668c0,0-0.782-0.246-1.151,0.22
				c-0.044,0.053-0.097,0.088-0.158,0.123C2014.729,1148.826,2014.55,1173.869,2009.451,1178.036z"/>
			<path style="fill:#FFFFFF;" d="M1965.396,1183.62c0,0-0.987,1.906-5.948,0.325c0,0-4.166-1.326-3.477-3.521
				C1955.972,1180.425,1960.474,1179.873,1965.396,1183.62z"/>
			<path style="fill:#2A4E96;" d="M1964.047,1232.417c0,0-11.053,139.684-10.897,151.321c0.153,11.639,12.247,23.945,12.247,23.945
				s9.637-10.549,11.518-21.684c1.881-11.134-5.331-152.15-5.331-152.15L1964.047,1232.417z"/>
			<path style="fill:#AEC3FF;" d="M2013.169,1223.513c0,0,17.845,4.271,31.951,31.37c14.106,27.099,25.25,81.754,31.984,96.181
				c6.735,14.427,11.353,59.855,11.353,59.855l-10.663,5.233c0,0-25.746-46.561-29.555-61.83
				c-2.062-8.261-33.541-74.392-33.541-74.392L2013.169,1223.513z"/>
			<path style="fill:#9DB0F4;" d="M2038.385,1407.684c-0.009,0-0.009,0-0.018,0c-33.597-4.835-23.971-116.032-21.334-116.473
				c2.637-0.439,12.298,19.875,12.298,19.875l0.923,4.51c2.566,25.782,6.303,55.396,11.981,86.638
				C2042.613,1404.29,2041.181,1406.109,2038.385,1407.684z"/>
		</g>
		<g>
			<g>
				<path style="fill:#233862;" d="M2457.58,1650.594c0,0,13.989,12.767,11.26,21.838c-2.73,9.07-15.354,15.118-17.061,26.205
					c-1.706,11.086-8.529,17.134-14.672,17.134c-6.141,0-29.28,0-29.28,0s-4.521-7.802,6.397-10.153
					c10.919-2.352,15.035-15.38,14.354-27.475c-0.683-12.095,1.023-28.221,1.023-28.221l23.201-5.376L2457.58,1650.594z"/>
				<path style="fill:#233862;" d="M2285.956,1683.613c0,0,2.511,29.055-3.631,32.078l-78.599-0.161c0,0,0-9.071,12.625-11.087
					c12.624-2.016,34.803-9.407,38.556-25.869C2258.66,1662.111,2285.956,1683.613,2285.956,1683.613z"/>
				<path style="fill:#2A4E96;" d="M2219.598,1273.197c0,0,4.146,50.929,9.019,112.148c6.622,83.16,14.586,185.311,15.374,204.662
					c1.361,33.603,6.827,87.354,6.827,87.354s12.959,12.771,38.897,7.388c0,0,23.112-76.73,29.715-157.916
					c0.102-1.33,0.205-2.671,0.307-4.012c6.142-82.646,15.691-256.68,15.691-256.68L2219.598,1273.197z"/>
				<path style="fill:#233862;" d="M2219.598,1273.197c0,0,4.146,50.929,9.019,112.148l90.813,141.487
					c0.102-1.33,0.205-2.671,0.307-4.012c6.142-82.646,15.691-256.68,15.691-256.68L2219.598,1273.197z"/>
				<path style="fill:#2A4E96;" d="M2238.529,1279.245c0,0,74.723,184.444,123.855,271.123s64.487,110.868,64.487,110.868
					s28.148-11.087,30.708-18.646c0,0-18.789-167.338-51.692-208.13c-18.592-23.05-34.628-74.188-33.824-98.386
					c1.385-41.731-14.285-90.09-14.285-90.09L2238.529,1279.245z"/>
			</g>
			<path style="fill:#FFB27D;" d="M2178.858,1281.955c0,0-13.952,18.892-14.979,23.934c-1.025,5.043-2.233,23.042-0.563,28.311
				c1.67,5.269,10.368-15.723,13.89-18.143c3.521-2.42-2.201,8.262-0.829,9.886c1.372,1.623,8.092-6.563,10.739-9.356
				c2.648-2.795,1.406-16.776,4.231-25.288S2178.858,1281.955,2178.858,1281.955z"/>
			<path style="fill:#FFFFFF;" d="M2240.39,1007.424c0,0-18.854,175.508-20.533,180.509c-0.366,1.086-1.845,6.643-3.928,14.636
				c-2.968,11.416-7.16,27.82-11.138,43.416c-5.999,23.564-12.481,43.941-12.481,43.941s-2.847,1.842-9.714,1.256
				c-4.685-0.399-7.211-4.4-7.211-4.4s0.689-86.17,4.895-105.807c4.218-19.65,17.68-140.313,24.486-156.554
				C2211.56,1008.182,2240.39,1007.424,2240.39,1007.424z"/>
			<path style="fill:#DCEAFF;" d="M2215.929,1202.568c-2.968,11.416-7.16,27.82-11.138,43.416
				c-2.564-7.211-5.822-18.689-7.881-34.425c-3.788-29.045,7.855-90.924,7.855-90.924L2215.929,1202.568z"/>
			<path style="fill:#FFFFFF;" d="M2365.233,1277.227c-27.063,15.268-143.003,14.928-148.37,2.943
				c-11.997-26.76-15.003-162.741-9.345-204.453c0,0,2.93-64.101,9.345-61.273c42.822-19.675,112.14-1.806,112.14-1.806
				c18.689,5.506,17.085,48.215,22.302,108.187c0.669,7.729,1.414,15.786,2.247,24.108c3.688,37.038,9.055,79.583,17.212,124.464
				C2371.308,1272.353,2369.249,1274.967,2365.233,1277.227z"/>
			<path style="fill:#FFB27D;" d="M2296.977,1005.428c-0.719,11.467-15.671,10.166-33.654,6.063
				c-17.97-4.092-11.466-14.7-11.466-14.7s0.265-8.146,1.401-17.907c0.417-3.548,0.935-7.324,1.616-10.986
				c0.315-1.793,0.67-3.561,1.073-5.266c2.35-10.09,35.915-0.354,35.676,2.361C2290.967,972.317,2296.27,996.424,2296.977,1005.428z
				"/>
			<polygon style="fill:#233862;" points="2258.438,1025.438 2257.019,1009.599 2276.924,1013.354 2269.264,1027.495 			"/>
			<path style="fill:#DCEAFF;" d="M2252.283,989.333l-11.895,18.086c0,0,0,11.127,10.32,19.2l16.262-15.143
				C2266.971,1011.477,2256.457,1007.466,2252.283,989.333z"/>
			<path style="fill:#DCEAFF;" d="M2266.971,1011.477c0,0,3.374,12.093,9.883,17.643c0,0,25.392-6.827,31.442-19.835l-13.225-17.072
				C2295.071,992.213,2294.432,1005.126,2266.971,1011.477z"/>
			<path style="fill:#E2915A;" d="M2291.813,970.688c0,0-16.164,10.747-38.555,8.195c0.417-3.548,0.935-7.324,1.616-10.986
				c4.42-1.074,8.12-1.743,8.12-1.743L2291.813,970.688z"/>
			<path style="fill:#FFB27D;" d="M2302.07,958.477c-7.899,21.743-36.727,16.191-49.003,12.701
				c-3.456-0.977-5.596-1.795-5.596-1.795c-3.794-1.721-4.969-8.342-4.636-16.704c0.653-16.549,7.19-39.914,10.939-45.544
				c5.645-8.472,15.055-17.085,43.02-5.09C2324.764,914.044,2312.2,930.62,2302.07,958.477z"/>
			<path style="fill:#BC3F3F;" d="M2323.667,947.313c-8.827,7.198-27.789,20.521-27.789,20.521s2.113-2.494,4.69-9.68
				c0.294-0.817,0.386-2.01,0.347-3.277c-0.108-3.524,0.741-7.042,2.592-10.044c1.155-1.875,1.573-3.821,0.112-5.199
				c-2.396-2.27-6.487-0.186-9.169,1.651c-1.768,1.211-4.092,1.282-5.913,0.151c-0.011-0.007-0.021-0.014-0.033-0.022
				c-7.539-4.723,0.782-13.045-5.342-19.953c-6.138-6.907-32.657-7.854-31.596-12.186c-9.056-5.115-3.348-23.994-3.183-24.992
				c0,0,12.994,1.149,29.222-2.904c13.171-3.309,27.693,5.152,32.29,8.638c0-0.834-0.139-1.995-0.731-3.22
				c0,0,1.994,1.97,1.957,4.268c0.202,0.202,0.29,0.341,0.227,0.379c0,0,2.627-0.051,4.155,0.959c0,0-1.124-0.354-1.654,0.316
				c-0.063,0.076-0.139,0.126-0.228,0.177C2331.25,905.349,2330.991,941.327,2323.667,947.313z"/>
			<path style="fill:#FFFFFF;" d="M2260.377,955.335c0,0-1.418,2.738-8.545,0.467c0,0-5.985-1.906-4.994-5.058
				C2246.838,950.744,2253.305,949.952,2260.377,955.335z"/>
			<path style="fill:#2A4E96;" d="M2258.438,1025.438c0,0-15.877,200.671-15.655,217.391c0.222,16.719,17.595,34.398,17.595,34.398
				s13.844-15.153,16.547-31.149c2.702-15.996-7.66-218.582-7.66-218.582L2258.438,1025.438z"/>
			<path style="fill:#DCEAFF;" d="M2365.233,1277.227c-0.013,0-0.013,0-0.025,0c-48.266-6.945-34.438-166.693-30.649-167.324
				c3.789-0.632,17.667,28.553,17.667,28.553l1.326,6.479c3.688,37.038,9.055,79.583,17.212,124.464
				C2371.308,1272.353,2369.249,1274.967,2365.233,1277.227z"/>
			<g>
				<path style="fill:#A02E2E;" d="M2507.122,1396.226l-102.067,29.702c-13.284,3.865-27.315-3.84-31.181-17.124l-12.872-44.232
					c-3.865-13.283,3.84-27.315,17.124-31.181l102.067-29.701c13.284-3.866,27.315,3.84,31.182,17.123l12.871,44.232
					C2528.111,1378.329,2520.406,1392.36,2507.122,1396.226z"/>
				<path style="fill:#BC3F3F;" d="M2374.447,1360.628l13.022,44.741c2.524,8.661,9.347,14.964,17.473,17.248
					c2.694,0.762,5.532,1.083,8.41,0.892c0.006-0.001,0.006-0.001,0.013-0.001l0.006-0.002c1.793-0.111,3.603-0.419,5.399-0.944
					l101.883-29.653c13.333-3.88,21.067-17.961,17.188-31.294l-13.017-44.748c-3.886-13.332-17.967-21.065-31.3-17.187
					l-35.081,10.212l-2.776-9.547c-1.28-4.412-5.918-6.95-10.325-5.671l-3.847,1.118l-21.34,6.211l-5.302,1.545
					c-2.128,0.616-3.897,2.039-4.972,3.989c-1.073,1.956-1.322,4.208-0.699,6.336l2.776,9.546l-20.324,5.909
					c-0.807,0.233-1.581,0.507-2.34,0.81c-0.005,0.007-0.011,0.008-0.018,0.009l-0.006,0.001
					c-7.733,3.105-13.229,9.793-15.11,17.536l0.001,0.007C2373.155,1351.828,2373.181,1356.263,2374.447,1360.628z
					 M2453.429,1311.345l-36.457,10.614l-2.776-9.546c-0.478-1.642,0.471-3.373,2.118-3.853l9.155-2.663l16.795-4.894l4.532-1.315
					c0.313-0.089,0.621-0.126,0.929-0.12c1.324,0.023,2.539,0.902,2.93,2.236L2453.429,1311.345z"/>
			</g>
			<path style="fill:#FFB27D;" d="M2422.851,1282.778c0,0-3.165,26.466,2.768,26.086s20.454-3.227,21.445-7.783
				c0.99-4.557-11.119-25.82-11.119-25.82L2422.851,1282.778z"/>
			<path style="fill:#FFB27D;" d="M2423.612,1282.709c0,0-4.538,5.641-4.931,10.082c-0.393,4.443-2.557,12.198-0.523,12.699
				c2.034,0.501,5.75-9.663,5.75-9.663L2423.612,1282.709z"/>
			<path style="fill:#FFFFFF;" d="M2329.008,1012.644c0,0,25.636,6.136,45.901,45.066c20.266,38.932,36.274,117.45,45.949,138.176
				c9.676,20.725,17.04,82.91,17.04,82.91s-1.512,3.09-6.725,4.221c-4.047,0.877-8.199,0.534-8.199,0.534
				s-38.113-61.048-43.585-82.983c-2.961-11.868-48.185-106.873-48.185-106.873L2329.008,1012.644z"/>
		</g>
		<g>
			<polygon style="fill:#FFB27D;" points="640.731,1690.438 636.89,1662.773 653.024,1649.291 658.107,1685.916 			"/>
			<path style="fill:#233862;" d="M694.31,1715.148h-65.778c0,0-1.576-10.024,1.859-17.631c3.292-7.298,8.415-11.803,8.883-17.394
				c4.18,4.304,9.323,7.071,18.832,5.792c1.166,1.89,7.521,11.999,11.414,14.795C673.819,1703.8,692.987,1702.699,694.31,1715.148z"
				/>
			<path style="fill:#F99746;" d="M681.094,1316.879c-4.302,34.604-7.819,67.229-10.685,97.635
				c-15.309,162.006-12.304,261.025-12.304,261.025s-1.106,2.931-10.597,2.975c-5.364,0.029-10.619-1.143-10.619-1.143
				s-34.274-105.791-31.629-165.992c0.315-7.241,1.166-13.821,2.675-19.486c8.223-30.801-30.427-148.595,11.586-192.462
				C661.528,1255.57,683.073,1300.999,681.094,1316.879z"/>
			<path style="fill:#ED7D2B;" d="M681.094,1316.879c-4.302,34.604-7.819,67.229-10.685,97.635l-65.148,96.865
				c0.315-7.241,1.166-13.821,2.675-19.486c8.223-30.801-30.427-148.595,11.586-192.462
				C661.528,1255.57,683.073,1300.999,681.094,1316.879z"/>
			<path style="fill:#FFB27D;" d="M732.864,986.809c0,0-1.586-7.906-3.371-13.94c-0.79-2.67,4.716-20.205,8.526-22.363
				c3.811-2.158,13.735,9.651,10.927,18.718c-1.442,4.658-3.813,19.814-3.813,19.814L732.864,986.809z"/>
			<path style="fill:#FFB27D;" d="M732.864,986.809c0,0-2.072-4.584-3.942-5.327c-1.871-0.743-3.875-8.239-5.249-11.211
				c0,0,1.326-1.945,3.647,0.557c1.417,1.526,4.572,6,4.572,6L732.864,986.809z"/>
			<path style="fill:#FFB27D;" d="M461.323,1013.402c-0.403,0.832-0.963,2.319-1.463,3.718c-0.008-0.382-0.014-0.759-0.018-1.13
				c-0.026-2.784-10.424-17.939-14.699-18.888c-4.275-0.949-10.309,13.248-4.97,21.097c2.743,4.031,9.445,17.83,9.445,17.83
				l11.08-5.723c0,0,0.639-4.99,2.211-6.248c1.571-1.258,1.294-9.013,1.738-12.256
				C464.647,1011.803,462.81,1010.331,461.323,1013.402z"/>
			<path style="fill:#FFB27D;" d="M530.417,1682.144c-0.93-8.867-1.16-32.195-1.16-32.195s23.771-7.599,22.896-2.382
				c-4.301,25.649-3.134,38.35-3.134,38.35l-9.613,5.742L530.417,1682.144z"/>
			<path style="fill:#F99746;" d="M661.241,1315.23c0,0-91.832,251.726-109.909,360.917c0,0-4.188,2.878-12,1.923
				c-8.86-1.082-11.288-7.236-11.288-7.236s-16.59-130.87,16.384-176.306c22.654-31.215-9.771-168.306,42.992-179.298
				C640.185,1304.238,661.241,1315.23,661.241,1315.23z"/>
			<path style="fill:#163560;" d="M644.931,1073.083c-0.001-0.009-0.001-0.009-0.001-0.009c-0.017-0.11-0.042-0.219-0.077-0.326
				c-0.536-2.216-1.123-4.396-1.753-6.561c-0.002-0.009-0.002-0.009-0.002-0.009c-1.922-6.62-4.208-12.923-6.676-18.486
				c-1.421-3.19-2.892-6.147-4.398-8.781c-0.23-0.406-0.455-0.785-0.671-1.175l-0.011-0.008c-3.548-5.965-7.197-10.088-10.488-11.36
				c-6.004-2.32-12.683-1.674-17.281-0.718c1.009-1.406,3.298-2.205,3.298-2.205c-2.942-0.003-8.936,3.803-8.936,3.803
				c-42.296-9.459-39.824,50.373-36.944,63.934c2.87,13.562-10.748,20.15-29.953,34.026c-36.651,26.477-36.037,54.541-36.037,54.541
				c0.33,0.139,0.691,0.3,1.066,0.488c1.475-3.63,4.603-10.504,7.881-11.957c-0.092,0.323-2.759,9.228-3.517,14.212
				c5.583,3.077,13.309,7.84,21.698,13.217c0,0,0,0,0.01,0.008c11.226,7.185,23.615,15.451,33.542,22.164
				c-0.472-2.731-0.939-6.626-0.245-8.828l3.163,9.799l0.415,1.278c6.336,4.295,11.335,7.73,13.873,9.489
				c0.261,0.177,0.491,0.34,0.699,0.477c0.741,0.509,1.139,0.787,1.139,0.787c-0.843-3.463,2.854-12.493,9.06-23.873
				c0.425-0.794,0.877-1.601,1.336-2.419c2.004-3.597,4.242-7.387,6.649-11.296c0.867-1.412,1.744-2.826,2.654-4.265
				c-0.002-0.009,0.008-0.01,0.008-0.01c0.727-1.158,1.465-2.308,2.227-3.479l0.008-0.011c1.798-2.778,3.659-5.576,5.556-8.379
				c4.917-7.262,10.122-14.473,15.266-21.085c7.469-9.628,14.797-17.998,20.935-23.474c0.201-0.414,0.391-0.836,0.562-1.265
				c0.961-2.232,1.698-4.712,2.269-7.233c0.178-0.757,0.336-1.521,0.476-2.282c1.529-8.051,1.559-16.038,1.539-17.938
				c0.492,7.779,0.296,13.646-0.225,18.079c-0.118,0.974-0.246,1.874-0.394,2.711l0.002,0.009c-0.327,1.895-0.704,3.459-1.11,4.756
				c1.005-1.245,1.888-2.613,2.669-4.107c0.511-0.975,0.977-2,1.389-3.073C650.552,1109.613,649.219,1090.763,644.931,1073.083z"/>
			<path style="fill:#FFB27D;" d="M636.984,1133.695c0.142,0.041-11.841,8.715-22.006,7.496
				c-9.56-1.139-17.336-12.158-17.213-12.204c3.776-1.352,4.103-6.865,0.603-29.83l1.81,0.085l30.447,1.457
				c0,0,0.711,9.408,1.996,18.18C633.696,1126.244,635.182,1133.16,636.984,1133.695z"/>
			<path style="fill:#ED975D;" d="M630.625,1100.699c0,0,0.711,9.408,1.996,18.18c-16.62,1.995-27.613-11.801-32.443-19.637
				L630.625,1100.699z"/>
			<path style="fill:#163560;" d="M596.644,1096.477c0,0-10.711-12.414-14.536-23.822c-2.731-8.145-3.083-39.789,28.744-39.958
				c0,0,9.184-0.455,18.545,4.025c7.446,3.563,18.678,11.977,11.785,40.661l-1.477,9.563L596.644,1096.477z"/>
			<path style="fill:#FFFFFF;" d="M684.932,1310.397c0,0-39.621,23.546-89.366,11.439c-0.586-0.144-40.961-6.587-40.961-6.587
				c0.694-1.898,5.912-33.088,6.594-34.833c8.825-22.774,24.954-146.378,38.43-152.476c3.441,3.748,13.275,6.313,21.692,5.565
				c9.692-0.856,12.938-5.044,12.133-9.548c10.726,5.071,18.967,9.785,18.967,9.785
				C662.223,1148.434,684.932,1310.397,684.932,1310.397z"/>
			<path style="fill:#FFB27D;" d="M637.388,1108.181c0,0-39.062,6.47-42.717-17.917c-3.655-24.389-11.158-39.978,13.628-45.141
				c24.785-5.162,31.037,3.416,34.236,11.26C645.734,1064.226,647.454,1105.868,637.388,1108.181z"/>
			<path style="fill:#163560;" d="M626.043,1041.873c0,0-6.465,30.211-22.289,36.89c-15.824,6.679-23.617,3.332-23.617,3.332
				s11.129-11.903,11.146-29.795C591.282,1052.3,615.93,1029.456,626.043,1041.873z"/>
			<path style="fill:#163560;" d="M623.731,1044.592c0,0,8.957,5.197,11.833,11.118c2.876,5.921,5.656,18.577,9.318,17.588
				c0,0,5.184-20.651-5.53-30.305C627.992,1032.758,623.731,1044.592,623.731,1044.592z"/>
			<path style="fill:#2B478B;" d="M745.4,987.372c-1.588-0.559-3.93-1.883-6.983-2.158c-2.72-0.245-6.137,0.642-6.137,0.642
				s-11.021,68.507-11.839,72.137c-0.818,3.629-47.27,55.958-59.794,55.748c-11.309-0.189-24.707,8.541-27.193,10.219
				c0,0,26.337,55.69,27.65,66.152c1.429,11.383,15.063,186.676,15.063,186.676s-0.811,8.155,14.426,3.771
				c15.236-4.384,19.047-8.012,19.047-8.012s-13.996-138.002-16.932-180.919c-0.394-5.762-1.334-11.094-2.673-16.013
				c-1.291-4.743-0.273-9.815,2.622-13.788c19.264-26.444,49.684-69.287,51.379-78.393
				C746.524,1070.054,745.4,987.372,745.4,987.372z"/>
			<path style="fill:#233862;" d="M585.223,1715.148h-65.778c0,0-1.577-10.024,1.859-17.631c3.292-7.298,8.415-11.803,8.883-17.394
				c4.18,4.304,9.323,7.071,18.833,5.792c1.165,1.89,7.521,11.999,11.414,14.795C564.731,1703.8,583.898,1702.699,585.223,1715.148z
				"/>
			<path style="fill:#2B478B;" d="M630.408,1195.52c-2.216-13.642-30.52-68.417-30.52-68.417s-17.893-5.352-29.669-1.085
				c-11.776,4.266-72.707-30.137-74.66-33.303c-1.953-3.168-34.588-63.979-34.588-63.979s-2.706-1.567-7.042,0.692
				c-4.289,2.235-4.309,6.602-4.309,6.602s25.187,76.565,31.888,88.41c4.041,7.143,38.013,32.009,64.352,50.629
				c5.029,3.556,7.67,9.609,6.844,15.713c-3.542,26.182-4.443,40.926-8.516,85.854c-3.379,37.27-4.672,109.425-4.672,109.425
				s29.475,10.199,49.816,11.553c20.342,1.354,24.775-20.091,24.775-20.091S632.686,1209.546,630.408,1195.52z"/>
			<path style="fill:#FFFFFF;" d="M624.587,1096.123c0,0,4.746,2.786,10.349,1.946c3.839-0.575,4.71-5.129,4.71-5.129
				s-2.668-0.841-6.926,0.015C628.463,1093.81,624.587,1096.123,624.587,1096.123z"/>
		</g>
		<g>
			<path style="fill:#FFB27D;" d="M1872.245,631.22c0,0-18.278-32.482,0-39.089c18.278-6.607,26.548-0.515,27.418,6.884
				c0.87,7.398-6.963,36.558-6.963,36.558L1872.245,631.22z"/>
			<path style="fill:#F99746;" d="M1886.895,838.962c-33.328,6.006-63.967,8.792-91.62,9.41
				c-26.252,0.592-49.806-0.775-70.426-3.168c-5.536-0.635-10.854-1.349-15.964-2.124c-53.957-8.182-83.751-22.691-83.751-22.691
				s49.301-103.197,89.122-99.236c46.724,4.657,125.896,46.584,133.766,34.825c8.86-13.248,16.276-126.863,16.276-126.863
				c20.716-14.188,33.085,0.766,33.085,0.766S1937.849,829.771,1886.895,838.962z"/>
			<path style="fill:#ED7D2B;" d="M1886.895,838.962c-33.328,6.006-63.967,8.792-91.62,9.41
				c-26.252,0.592-49.806-0.775-70.426-3.168c-12.43-39.534-21.369-79.913,3.63-55.567
				C1772.582,832.573,1886.895,838.962,1886.895,838.962z"/>
			<path style="fill:#233862;" d="M1621.393,1672.181c0,0-3.546,41.024,5.126,45.294l110.982-0.228c0,0,0-12.809-17.826-15.654
				c-17.825-2.847-49.142-13.283-54.44-36.527C1659.935,1641.82,1621.393,1672.181,1621.393,1672.181z"/>
			<path style="fill:#2A4E96;" d="M1702.87,1175.657c-0.548,26.826-1.836,54.496-4.36,79.364
				c-11.985,118.002-16.198,260.576-17.922,288.064c-2.985,47.716-12.412,123.947-12.412,123.947s-18.696,17.748-55.141,9.278
				c0,0-30.195-109.794-36.94-225.403c-0.104-1.896-0.209-3.804-0.305-5.709c-0.784-15.285-1.602-32.763-2.438-51.607
				c-5.554-126.228-11.585-313.742-11.585-313.742l139.267-32.701C1701.034,1047.148,1704.237,1108.783,1702.87,1175.657z"/>
			<path style="fill:#233862;" d="M1702.87,1175.657c-35.295,60.894-102.569,173.082-129.518,217.935
				c-5.554-126.228-11.585-313.742-11.585-313.742l139.267-32.701C1701.034,1047.148,1704.237,1108.783,1702.87,1175.657z"/>
			<path style="fill:#FFB27D;" d="M1350.244,1057.697c0,0-22.661,26.65-24.7,34.039s-5.669,34.014-3.725,42.013
				c1.944,8,17.011-22.307,22.491-25.544c5.48-3.236-4.114,12.054-2.24,14.606c1.874,2.552,12.694-8.926,16.914-12.809
				c4.219-3.884,3.801-24.786,8.868-37.146C1372.919,1060.495,1350.244,1057.697,1350.244,1057.697z"/>
			<path style="fill:#233862;" d="M1344.927,1625.557c0,0-19.753,18.026-15.899,30.835c3.854,12.809,21.68,21.347,24.089,37.002
				c2.409,15.654,12.044,24.193,20.717,24.193c8.672,0,41.344,0,41.344,0s6.384-11.016-9.033-14.337
				c-15.417-3.32-21.23-21.716-20.267-38.794c0.964-17.078-1.445-39.849-1.445-39.849l-32.761-7.59L1344.927,1625.557z"/>
			<path style="fill:#2A4E96;" d="M1679.088,1082.707c0,0-130.369,278.938-199.745,401.33
				c-69.376,122.391-91.056,156.547-91.056,156.547s-39.747-15.655-43.36-26.329c0,0,26.529-236.282,72.989-293.881
				c26.252-32.546,57.09-130.218,58.536-164.374c1.445-34.155,31.902-115.678,31.902-115.678L1679.088,1082.707z"/>
			<path style="fill:#F99746;" d="M1717.204,1095.861c0,0-51.845,34.661-125.22,31.442c-32.202-1.407-96.078-10.537-106.388-36.146
				c-2.42-6.013-0.645-13.644,2.985-25.356c9.424-30.441,31.389-88.408,24.756-216.936c-0.619-11.957-0.282-23.202,0.863-33.729
				c6.911-63.308,43.192-100.8,78.26-113.05c85.521-29.891,114.031,11.521,114.031,11.521s37.803,29.949,43.501,92.452
				C1761.379,931.081,1717.204,1095.861,1717.204,1095.861z"/>
			<path style="fill:#FFB27D;" d="M1617.52,694.905c0,0,39.24,23.867,81.803,17.118c0,0,8.414-2.14,4.277-12.018
				c2.594-7.972,2.28-7.254,3.778-13.179c3.733-13.634,4.873-21.5,4.873-21.5l-24.153-25.387l-22.877-24.26
				C1658.902,673.663,1617.52,694.905,1617.52,694.905z"/>
			<path style="fill:#ED985F;" d="M1661.557,637.669c0,0,13.145,35.133,45.821,49.157c3.733-13.634,6.161-27.897,6.161-27.897
				l-25.441-18.99L1661.557,637.669z"/>
			<path style="fill:#FFB27D;" d="M1739.35,664.099c0,0-74.903,9.363-80.162-36.667c-5.258-46.029-18.466-75.82,29.136-83.745
				c47.602-7.924,58.916,8.62,64.466,23.567C1758.338,582.203,1758.698,660.477,1739.35,664.099z"/>
			<path style="fill:#2C3A64;" d="M1635.542,536.206c-0.647-0.8-2.182-1.484-5.644-1.805c0,0,2.838-1.629,6.55-1.581
				c0.907-4.796,3.796-13.237,12.177-14.998c0,0-4.551,2.209-5.328,7.316c9.988-9.512,30.863-15.921,87.745-9.26
				c74.965,8.778,48.364,55.981,38.413,61.352c-9.951,5.371-33.858-11.289-52.049-10.535c-18.19,0.753-22.631,26.83-28.919,30.193
				c-6.288,3.364-3.629-2.903-11.811-6.981c-8.183-4.078-9.495,9.687-7.431,18.746c2.065,9.06-9.82,20.457-9.82,20.457
				s0,0-11.087-12.885c-11.088-12.885-19.988-66.023-14.308-77.063C1634.532,538.187,1635.029,537.198,1635.542,536.206z"/>
			<g>
				<polygon style="fill:#2A4E96;" points="1864.298,609.673 1737.137,610.805 1736.269,591.676 1863.034,581.852 				"/>
				<polygon style="fill:#2A4E96;" points="1960.287,612.867 1821.84,614.869 1820.26,580.088 1958.313,569.391 				"/>
				<polygon style="fill:#233862;" points="2053.642,615.597 1936.893,615.742 1934.76,568.788 2051.035,558.209 				"/>
				<path style="fill:#233862;" d="M2055.309,623.523L2055.309,623.523c3.602-0.164,6.39-3.216,6.226-6.817l-2.74-60.316
					c-0.163-3.602-3.216-6.389-6.817-6.225l0,0c-3.602,0.164-6.389,3.216-6.225,6.818l2.739,60.315
					C2048.655,620.899,2051.707,623.687,2055.309,623.523z"/>
				<path style="fill:#2A4E96;" d="M1736.742,614.889L1736.742,614.889c-3.201,0.146-5.915-2.332-6.061-5.533l-0.711-15.651
					c-0.146-3.202,2.332-5.915,5.533-6.06l0,0c3.202-0.145,5.915,2.332,6.061,5.533l0.711,15.651
					C1742.421,612.031,1739.943,614.744,1736.742,614.889z"/>
			</g>
			<path style="fill:#ED7D2B;" d="M1488.582,1065.801c9.424-30.441,31.389-88.408,24.756-216.936
				c-0.619-11.957-0.282-23.202,0.863-33.729l0.009,0.001c28.145-2.419,71.167,28.007,71.167,28.007
				S1558.882,1004.679,1488.582,1065.801z"/>
			<path style="fill:#F99746;" d="M1617.52,694.905c0,0-72.167,12.405-109.808,58.356c-37.64,45.951-98.188,110.743-112.502,133.431
				c-14.315,22.689-54.056,177.097-54.056,177.097s2.623,4.964,13.583,7.854c10.49,2.765,18.102-1.522,18.102-1.522
				s52.652-90.109,72.467-135.125c8.232-18.703,150.62-92.772,204.15-85.098C1670.479,852.912,1617.52,694.905,1617.52,694.905z"/>
			<path style="fill:#FFB27D;" d="M1863.541,576.374c0,0,15.522,9.495,24.807,5.478c9.285-4.017,8.466-7.695,8.466-7.695
				S1868.764,566.374,1863.541,576.374z"/>
			<path style="fill:#BC3F3F;" d="M1687.548,745.245c0,0-31.671,199.955-256.381,258.171l-24.478,48.294l43.001,7.277
				c0,0,255.825-74.113,252.379-317.278L1687.548,745.245z"/>
			<polygon style="fill:#A02E2E;" points="1682.639,713.329 1672.267,714.345 1672.267,729.359 1687.548,745.245 1702.078,741.709 
				1702.078,720.873 1691.634,713.329 			"/>
			<path style="fill:#ED7D2B;" d="M1641.938,673.566c0,0-10.04,2.265-32.993,21.339c0,0,22.827,48.455,70.99,54.258
				c0,0-0.777-22.487,2.704-35.834C1682.639,713.329,1644.467,699.665,1641.938,673.566z"/>
			<path style="fill:#ED7D2B;" d="M1682.639,713.329c0,0,23.502,12.476,25.242,31.916c0,0,8.984-14.233,6.379-24.089
				c-2.606-9.857-10.66-21.15-10.66-21.15S1704.399,711.878,1682.639,713.329z"/>
		</g>
	</g>
</g>
</svg>
